<?xml version="1.0" encoding="UTF-8"?>
<svg viewBox="0 0 90.309 304.04" xmlns="http://www.w3.org/2000/svg">
<path transform="translate(-348.12 -30.748)" d="M438.341,331.066v-.005a2.068,2.068,0,0,0-2.394-1.422,28.418,28.418,0,0,1-4.075.506,18.374,18.374,0,0,1-7.89-1.179,12.091,12.091,0,0,1-6.173-5.727c-.2-.323-.3-.639-.463-.954-.073-.164-.147-.3-.224-.484l-.231-.619-.91-2.452a42.734,42.734,0,0,0-2.191-5.021c-.446-.791-.846-1.584-1.316-2.334-.5-.738-.956-1.477-1.468-2.165-.55-.671-1.041-1.35-1.609-1.955a23.157,23.157,0,0,0-1.724-1.708,17.669,17.669,0,0,0-1.794-1.427l-.891-.613-.908-.516a16.094,16.094,0,0,0-3.316-1.38c-.574-.153-1.07-.255-1.524-.331V226.064a5.909,5.909,0,0,0-3.052-5.153V191.22h19.882a5.949,5.949,0,0,0,5.864-4.876c2.023-11.1,5.9-38.08-1.966-48.174q-.468-.6-.9-1.2A28.8,28.8,0,0,1,416.624,108c5.544-11.839,16.353-37.054,6.426-40.294A69.414,69.414,0,0,1,403.561,57.6a4.841,4.841,0,0,1-1.891-3.172l-.787-5.393a2.161,2.161,0,0,0-2.142-1.845h-.186s1.614-1.661-.722-3.268a3.635,3.635,0,0,1-1.772-2.875,5.562,5.562,0,1,0-5.576,0,3.635,3.635,0,0,1-1.772,2.875c-2.336,1.607-.722,3.268-.722,3.268H387.8a2.161,2.161,0,0,0-2.142,1.845l-.787,5.393a4.838,4.838,0,0,1-1.892,3.172A69.376,69.376,0,0,1,363.493,67.7c-9.926,3.24.883,28.456,6.427,40.294a28.8,28.8,0,0,1-2.442,28.971q-.428.6-.9,1.2c-7.865,10.094-3.989,37.073-1.967,48.174a5.951,5.951,0,0,0,5.866,4.876H390.36v29.691a5.909,5.909,0,0,0-3.052,5.153v75.218c-.454.076-.95.178-1.524.331a16.094,16.094,0,0,0-3.316,1.38l-.908.516-.892.613a17.674,17.674,0,0,0-1.794,1.427,23.169,23.169,0,0,0-1.724,1.708c-.569.6-1.06,1.284-1.609,1.955-.513.688-.97,1.427-1.468,2.165-.47.75-.87,1.543-1.316,2.334a42.724,42.724,0,0,0-2.191,5.021q-.453,1.218-.91,2.452l-.232.619c-.076.187-.149.32-.223.484-.162.315-.259.631-.463.954a12.089,12.089,0,0,1-6.174,5.727,18.366,18.366,0,0,1-7.889,1.179,28.42,28.42,0,0,1-4.075-.506,2.068,2.068,0,0,0-2.394,1.422v.005a2.041,2.041,0,0,0,1.423,2.558,32.465,32.465,0,0,0,4.676.886,23.015,23.015,0,0,0,10.015-.908,17.175,17.175,0,0,0,5.248-2.888,18.276,18.276,0,0,0,4.043-4.652c.29-.412.523-.922.782-1.384l.364-.7.271-.6,1.073-2.412a36.752,36.752,0,0,1,2.162-4.21c.412-.626.786-1.272,1.2-1.847.436-.554.834-1.127,1.263-1.629.452-.472.857-.977,1.3-1.384a16.531,16.531,0,0,1,1.293-1.124,10.7,10.7,0,0,1,1.247-.865l.587-.356q.292-.138.567-.268a8.032,8.032,0,0,1,1.581-.564l-.161.237-.308.56a10.358,10.358,0,0,0-.581,1.261c-.2.443-.322.95-.49,1.451-.152.508-.251,1.057-.382,1.609-.108.56-.179,1.144-.27,1.737-.075.6-.107,1.213-.16,1.835-.06,1.249-.1,2.544-.033,3.858q.03.925.061,1.861l.015.47c0,.144-.007.249-.009.375-.013.245,0,.482-.028.739a7.766,7.766,0,0,1-1.831,4.919,6.734,6.734,0,0,1-3.6,1.948,9.506,9.506,0,0,1-2.093.217c-.884-.013-1.145.833-1.084,1.6v0a1.293,1.293,0,0,0,1.429,1.352,13.846,13.846,0,0,0,2.465-.033,8.264,8.264,0,0,0,4.7-2.056,8.434,8.434,0,0,0,1.965-2.782,13.243,13.243,0,0,0,1.013-3.859c.056-.331.064-.726.1-1.087l.033-.548.007-.464q.014-.933.027-1.857c0-1.159.088-2.247.185-3.281.073-.5.121-1.009.206-1.475s.175-.914.28-1.33c.124-.4.216-.811.347-1.16a10.549,10.549,0,0,1,.4-.977,6.127,6.127,0,0,1,.43-.788l.214-.334.222-.27a3.3,3.3,0,0,1,.651-.619h6.227a2,2,0,0,0,2-1.994v-1.12a8.12,8.12,0,0,1,1.591.566c.183.088.372.177.567.268l.587.356a10.936,10.936,0,0,1,1.247.865,16.553,16.553,0,0,1,1.293,1.124c.44.407.845.912,1.3,1.384.427.5.826,1.075,1.263,1.629.416.575.789,1.221,1.2,1.847a36.752,36.752,0,0,1,2.162,4.21q.532,1.2,1.073,2.412l.271.6.364.7c.259.461.492.972.782,1.384a18.252,18.252,0,0,0,4.042,4.652,17.176,17.176,0,0,0,5.248,2.888,23.015,23.015,0,0,0,10.015.908,32.462,32.462,0,0,0,4.676-.886A2.041,2.041,0,0,0,438.341,331.066Z" fill="#4d4d4d" data-name="Pfad 198"/>
<g transform="translate(1.294 7.298)" fill="#fff" data-name="Gruppe 21">
<path transform="translate(-338.87 44.578)" d="M378.287,241.362a.938.938,0,0,1-.938-.938v-.532l-.08.118-.124.226a1.166,1.166,0,0,0,.334,1.086,1.535,1.535,0,0,0,1.464.158,1.515,1.515,0,0,1,.14-.118Z" data-name="Pfad 199"/>
<path transform="translate(-343.66 -43.865)" d="m359.87 55.092a63.306 63.306 0 0 0 6.91-3.178 8.256 8.256 0 0 0 3.146-2.484 14.173 14.173 0 0 0 1.046-3.153 6.69 6.69 0 0 1-0.506 3.4 7.464 7.464 0 0 1-3.312 2.687 31.966 31.966 0 0 1-7.284 2.728z" data-name="Pfad 200"/>
<path transform="translate(-318.47 -51.049)" d="M400.263,65.447a30.9,30.9,0,0,1-2.173,8.772c-1.2,3.236-3.008,6.348-3.428,9.815a15.246,15.246,0,0,0,2.353,10.173,13.156,13.156,0,0,1,1.579,2.723,16.812,16.812,0,0,1,.816,4.908,49.3,49.3,0,0,1-.856,10.72,82.632,82.632,0,0,0,.326-8.547c-.077-2.8-.254-6.121-1.983-8.454a15.653,15.653,0,0,1-2.056-15.6c.718-1.726,1.6-3.384,2.344-5.1A35.212,35.212,0,0,0,400.263,65.447Z" data-name="Pfad 201"/>
<path transform="translate(-338.14 -42.42)" d="m377.86 42.856h2.6l-2.834-0.436a1.05 1.05 0 0 0 0.234 0.436z" data-name="Pfad 202"/>
<path transform="translate(-337.82 -1.839)" d="m379.77 151.94 1.873-0.446h-1.873z" data-name="Pfad 203"/>
<g transform="translate(0 281.91)" data-name="Gruppe 20">
<path transform="translate(-315.97 -235.8)" d="M386.966,235.8a2.983,2.983,0,0,1,1,.191,5.57,5.57,0,0,1,1.06.505,6.871,6.871,0,0,1,1.209.931,6.991,6.991,0,0,1,.608.627,7.9,7.9,0,0,1,.593.722,12.9,12.9,0,0,1,1.1,1.689l.49.943.439.995c.291.668.53,1.381.785,2.064a8.741,8.741,0,0,0,.926,1.916,4.348,4.348,0,0,0,.652.785,6.313,6.313,0,0,0,.8.622,8.246,8.246,0,0,0,3.425,1.274,14.083,14.083,0,0,0,1.484.128c.445.005.835,0,1.155-.025.641-.039,1.008-.081,1.008-.081l-.259.051c-.17.028-.417.094-.738.128s-.711.086-1.162.116a9.923,9.923,0,0,1-1.521-.034,8.028,8.028,0,0,1-3.63-1.192,6.83,6.83,0,0,1-.867-.653,4.849,4.849,0,0,1-.733-.856,9.173,9.173,0,0,1-1.01-2.014c-.25-.7-.467-1.387-.745-2.051l-.415-.982c-.158-.313-.313-.623-.465-.928A17.576,17.576,0,0,0,391.136,239a7.424,7.424,0,0,0-.542-.727,6.6,6.6,0,0,0-.56-.635,8.381,8.381,0,0,0-1.114-.977,5.462,5.462,0,0,0-.992-.57,4.076,4.076,0,0,0-.7-.238A1.652,1.652,0,0,0,386.966,235.8Z" data-name="Pfad 204"/>
<path transform="translate(-350.19 -235.8)" d="M366.912,235.8a1.653,1.653,0,0,0-.26.044,4.078,4.078,0,0,0-.7.238,5.44,5.44,0,0,0-.992.57,8.381,8.381,0,0,0-1.114.977,6.6,6.6,0,0,0-.56.635,7.429,7.429,0,0,0-.542.727,17.583,17.583,0,0,0-1.009,1.681l-.465.928-.415.982c-.278.664-.495,1.354-.745,2.051a9.173,9.173,0,0,1-1.01,2.014,4.852,4.852,0,0,1-.733.856,6.828,6.828,0,0,1-.867.653,8.028,8.028,0,0,1-3.63,1.192,9.93,9.93,0,0,1-1.521.034c-.451-.031-.842-.068-1.162-.116s-.568-.1-.738-.128l-.26-.051s.368.042,1.008.081c.321.024.71.03,1.155.025a14.083,14.083,0,0,0,1.484-.128,8.246,8.246,0,0,0,3.425-1.274,6.356,6.356,0,0,0,.8-.622,4.347,4.347,0,0,0,.652-.785,8.71,8.71,0,0,0,.925-1.916c.256-.683.495-1.4.785-2.064l.438-.995.491-.943a12.9,12.9,0,0,1,1.1-1.689,7.908,7.908,0,0,1,.593-.722,7,7,0,0,1,.608-.627,6.871,6.871,0,0,1,1.209-.931,5.569,5.569,0,0,1,1.06-.505A2.982,2.982,0,0,1,366.912,235.8Z" data-name="Pfad 205"/>
</g>
<path transform="translate(-339.88 43.369)" d="M376.342,243.118a1.72,1.72,0,0,0-.205.436,7.79,7.79,0,0,0-.3,1.237,31.671,31.671,0,0,0-.368,3.851,7.865,7.865,0,0,1-.1,1.057,5.4,5.4,0,0,1-.267,1,3.776,3.776,0,0,1-.464.853,3.117,3.117,0,0,1-.6.626,3.28,3.28,0,0,1-1.145.585,4.1,4.1,0,0,1-.474.108,4.217,4.217,0,0,0,.463-.142,3.963,3.963,0,0,0,.5-.233,3.389,3.389,0,0,0,1.565-1.856,5.271,5.271,0,0,0,.244-.969,10.167,10.167,0,0,0,.1-1.038,24.989,24.989,0,0,1,.451-3.861,7.486,7.486,0,0,1,.367-1.229A1.717,1.717,0,0,1,376.342,243.118Z" data-name="Pfad 206"/>
<path transform="translate(-337.04 68.087)" d="M383.946,177.159l.061,1.67c.026,1.062.086,2.58.115,4.4s.083,3.947.1,6.224.027,4.706.042,7.134c-.014,2.428-.028,4.857-.041,7.134s-.069,4.4-.1,6.223-.09,3.339-.115,4.4-.061,1.669-.061,1.669l-.061-1.669c-.025-1.063-.088-2.58-.115-4.4s-.085-3.947-.1-6.223-.027-4.706-.041-7.134c.014-2.428.028-4.858.041-7.134s.07-4.4.1-6.224.089-3.339.115-4.4Z" data-name="Pfad 207"/>
<path transform="translate(-338.48 6.754)" d="M380.607,153.118s.05.77.088,1.925c.013.578.042,1.252.048,1.974l.021,2.262-.021,2.262c-.005.722-.035,1.4-.048,1.974-.038,1.155-.088,1.925-.088,1.925s-.051-.77-.088-1.925c-.012-.578-.043-1.252-.048-1.974s-.014-1.492-.021-2.262l.021-2.262c.006-.722.035-1.4.048-1.974C380.557,153.888,380.607,153.118,380.607,153.118Z" data-name="Pfad 208"/>
</g>
</svg>
