<?xml version="1.0" encoding="UTF-8"?>
<svg viewBox="0 0 108.65 73.548" xmlns="http://www.w3.org/2000/svg">
<g transform="translate(-1034.4 -64)" data-name="Gruppe 58">
<g transform="translate(1034.4 64)" data-name="Gruppe 12">
<path transform="translate(-258.43 -308.4)" d="M365.873,375.056h-.715v-5.085a4.72,4.72,0,0,0-4.72-4.72H340.151l-.653-.88c-.072-.1-7.156-9.8-3.842-18.272a25.649,25.649,0,0,0,1.859-10.75c-.006-.114-.024-.225-.033-.339h1.987v2.329a2.355,2.355,0,0,0,1.991,2.322v5.4a2.876,2.876,0,0,0,5.752,0V333.874h.344a1.181,1.181,0,0,1,1.18,1.18v12.868a3.543,3.543,0,0,0,3.539,3.54h.3v.422a.59.59,0,0,0,.59.59.581.581,0,0,0,.5-.3h.433a1.052,1.052,0,0,0,.705-.272,1.05,1.05,0,0,1,.987-.233s4.939.822,5.655.932a2.346,2.346,0,1,0,0-4.634c-.717.11-5.655.932-5.655.932a1.05,1.05,0,0,1-.987-.233,1.052,1.052,0,0,0-.705-.272h-.433a.581.581,0,0,0-.5-.3.59.59,0,0,0-.59.59v.422h-.3a1.181,1.181,0,0,1-1.18-1.18V335.054a3.544,3.544,0,0,0-3.54-3.54h-.344V320.326a2.876,2.876,0,0,0-5.752,0v5.4a2.354,2.354,0,0,0-1.991,2.323v2.329h-3.242a12.494,12.494,0,0,0-9.868-7.021,22.569,22.569,0,0,0-2.745-.128v-1.816h1.794a1.055,1.055,0,0,0,.25-2.081v-5.154a1.055,1.055,0,0,0-.25-2.081h-1.794v-1.119h-.59v-2.581h-.59v2.581h-.59v1.119h-1.794a1.055,1.055,0,0,0-.25,2.081v5.154a1.055,1.055,0,0,0,.25,2.081h1.794V323.3a25.6,25.6,0,0,0-4.053.623c-.173.044-17.4,4.4-28.359,2.479-7.185-1.144-9.413-4.642-10.037-6.092a3.22,3.22,0,0,0-2.97-1.94h-1.113v-4.3a.885.885,0,0,0-1.77,0v4.3h-1.627a1.6,1.6,0,0,0-1.593,1.592v10.6h-4.2a1.419,1.419,0,1,0-1.313.885h5.512v18.49a1.594,1.594,0,0,0,1.593,1.592h2.543v4.585a.59.59,0,0,0,.59.59h.15l.244,6.1.243-6.1h.15a.59.59,0,0,0,.59-.59v-1.18h.715a.173.173,0,0,0,.169.16h.385a.89.89,0,0,0,.487.649c.421.2.9.036.9-.456a.788.788,0,0,0-.236-.539.158.158,0,0,1,0-.218.788.788,0,0,0,.236-.539c0-.491-.477-.659-.9-.455a.888.888,0,0,0-.487.649h-.385a.174.174,0,0,0-.17.16h-.714v-2.815h2.01a3.248,3.248,0,0,0,3.244-3.244v-2.936a6.683,6.683,0,0,1,3.613-6.258,11.588,11.588,0,0,1,3.948-1.305h0c14.334-.852,22.211,1.272,26.3,3.2a7.312,7.312,0,0,1,4.074,7.634c-1.033,6.945-6.893,15.71-6.951,15.8l-.555.823h-47.04a4.72,4.72,0,0,0-4.72,4.72v5.085h-.715a1.2,1.2,0,0,0-1.2,1.2v4.482a1.2,1.2,0,0,0,1.2,1.2H365.873a1.2,1.2,0,0,0,1.2-1.2v-4.482A1.2,1.2,0,0,0,365.873,375.056ZM274.1,314.106a.331.331,0,0,1,.663,0v1.217a.331.331,0,1,1-.663,0Zm-9.286,16.753a.826.826,0,1,1,.826-.826A.827.827,0,0,1,264.811,330.859Z" fill="#fff" data-name="Pfad 35"/>
<path transform="translate(-260.96 -310.59)" d="M322.69,316.756l-.23.192c-.157.123-.367.322-.682.551a17.139,17.139,0,0,1-2.827,1.776,18.63,18.63,0,0,1-4.913,1.616,26.244,26.244,0,0,1-6.691.284,51.948,51.948,0,0,1-7.812-1.275c-2.738-.629-5.585-1.437-8.534-2.243a75.258,75.258,0,0,0-9.178-2.068,22.5,22.5,0,0,0-4.81-.2,11.163,11.163,0,0,0-4.61,1.325,13.9,13.9,0,0,0-3.638,3.155,10.574,10.574,0,0,0-2.08,4.277,13.289,13.289,0,0,0-.149,4.7,23.04,23.04,0,0,0,1.109,4.493,55.753,55.753,0,0,0,3.658,8c1.328,2.467,2.663,4.758,3.859,6.894s2.263,4.113,3.1,5.922a27.292,27.292,0,0,1,1.789,4.839,11.2,11.2,0,0,1,.357,3.3,8.228,8.228,0,0,1-.112.868l-.054.3.033-.3a8.235,8.235,0,0,0,.049-.868,12.973,12.973,0,0,0-.448-3.256,27.9,27.9,0,0,0-1.788-4.8c-.834-1.8-1.9-3.774-3.1-5.906s-2.536-4.423-3.869-6.892a55.93,55.93,0,0,1-3.68-8.024,23.251,23.251,0,0,1-1.125-4.535,13.5,13.5,0,0,1,.147-4.786,10.8,10.8,0,0,1,2.12-4.371,14.113,14.113,0,0,1,3.7-3.217,11.417,11.417,0,0,1,4.708-1.361,22.744,22.744,0,0,1,4.863.2,75.348,75.348,0,0,1,9.213,2.065c2.952.8,5.8,1.607,8.526,2.231a51.6,51.6,0,0,0,7.772,1.26,25.95,25.95,0,0,0,6.619-.287,18.334,18.334,0,0,0,4.835-1.6,16.851,16.851,0,0,0,2.774-1.746c.3-.221.522-.426.676-.547l.23-.192Z" fill="#265856" data-name="Pfad 36"/>
<g transform="translate(61.631 6.024)" fill="#fff" data-name="Gruppe 9">
<path transform="translate(-350.11 -317.36)" d="M352.783,317.415l1.838-.013.836-.016-.836-.016-1.838-.013-1.838.014-.835.015.835.016Z" data-name="Pfad 37"/>
<path transform="translate(-350.11 -317.58)" d="M352.783,318.042l-1.838.013-.835.016.835.015,1.838.013,1.838-.013.836-.015-.836-.016Z" data-name="Pfad 38"/>
<path transform="translate(-350.11 -317.81)" d="M352.783,318.728l-1.838.013-.835.015.835.016,1.838.013,1.838-.013.836-.016-.836-.015Z" data-name="Pfad 39"/>
<path transform="translate(-350.11 -318.03)" d="M352.783,319.413l-1.838.013-.835.016.835.016,1.838.013,1.838-.013.836-.016-.836-.016Z" data-name="Pfad 40"/>
<path transform="translate(-350.11 -318.26)" d="M352.783,320.1l-1.838.013-.835.016.835.015,1.838.013,1.838-.013.836-.015-.836-.016Z" data-name="Pfad 41"/>
<path transform="translate(-350.11 -318.48)" d="M352.783,320.784l-1.838.014-.835.015.835.016,1.838.013,1.838-.013.836-.016-.836-.015Z" data-name="Pfad 42"/>
<path transform="translate(-350.11 -318.7)" d="M352.783,321.47l-1.838.013-.835.016.835.016,1.838.013,1.838-.013.836-.016-.836-.016Z" data-name="Pfad 43"/>
<path transform="translate(-350.11 -318.93)" d="M352.783,322.156l-1.838.013-.835.016.835.015,1.838.013,1.838-.013.836-.015-.836-.016Z" data-name="Pfad 44"/>
<path transform="translate(-350.11 -319.15)" d="M352.783,322.841l-1.838.014-.835.015.835.016,1.838.013,1.838-.013.836-.016-.836-.015Z" data-name="Pfad 45"/>
<path transform="translate(-350.11 -319.38)" d="M352.783,323.527l-1.838.013-.835.016.835.015,1.838.014,1.838-.014.836-.015-.836-.016Z" data-name="Pfad 46"/>
<path transform="translate(-350.11 -319.6)" d="M352.783,324.213l-1.838.013-.835.015.835.016,1.838.013,1.838-.013.836-.016-.836-.015Z" data-name="Pfad 47"/>
</g>
<g transform="translate(53.677 21.981)" fill="#fff" data-name="Gruppe 10">
<path transform="translate(-352.34 -343.23)" d="m381.7 352.51v-4.912l-0.507 4.781a2.322 2.322 0 0 0 0.507 0.131z" data-name="Pfad 48"/>
<path transform="translate(-350.05 -341.1)" d="M375.43,345.729h.04c0-.183,0-.43-.006-.729a13.2,13.2,0,0,0-.294-2.357,13.412,13.412,0,0,0-.442-1.548h-.544A12.981,12.981,0,0,1,375.43,345.729Z" data-name="Pfad 49"/>
<path transform="translate(-338.28 -357.52)" d="M339.078,391.19c-.149.233-.239.366-.245.377l-.555.823h12.938Z" data-name="Pfad 50"/>
</g>
<g transform="translate(4.67 11.062)" fill="#fff" data-name="Gruppe 11">
<path transform="translate(-296.29 -327.9)" d="m366.58 338.43a12.159 12.159 0 0 1 1.814 7.944 24.321 24.321 0 0 1-0.765 4.408c-0.355 1.35-0.908 2.63-1.3 3.967-1.543 5.3 0.044 10.876 2.566 15.595a30.169 30.169 0 0 1-2.446-8.262 17.781 17.781 0 0 1 1-8.525 23.753 23.753 0 0 0 1.638-8.852 11.013 11.013 0 0 0-2.868-7.431 10.357 10.357 0 0 0-6.539-3.136 10.636 10.636 0 0 1 6.9 4.292z" data-name="Pfad 51"/>
<path transform="translate(-272.36 -325.41)" d="m289.82 330.88c2.809 2.331 6.493 3.286 10.052 3.688a46.638 46.638 0 0 0 9.4-0.132c-1.579-0.037-3.161-0.015-4.74-0.079-6.36-0.257-14.539-1.58-17.857-7.8a10.214 10.214 0 0 0 3.145 4.323z" data-name="Pfad 52"/>
<path transform="translate(-269.61 -325.46)" d="M278.876,350.041c.218-7.767.21-15.556-.222-23.316q-.148,2.662-.22,5.327c-.216,7.767-.214,15.556.22,23.316Q278.8,352.706,278.876,350.041Z" data-name="Pfad 53"/>
<path transform="translate(-305.57 -324.85)" d="m388.59 345.82c0.225-6.983 0.2-14-0.231-20.972q-0.15 2.438-0.223 4.879c-0.216 6.972-0.209 13.967 0.223 20.931q0.15-2.418 0.231-4.838z" data-name="Pfad 54"/>
<path transform="translate(-265.37 -351.82)" d="M349.07,407.258q-11.581-.085-23.162-.1-12.37-.027-24.74.006-11.607.025-23.215.131l-12.581.134.218,0c5.131.054,10.262.126,15.393.163q11.582.085,23.162.106,12.37.026,24.74-.006,11.607-.025,23.215-.13l12.581-.135-.218,0Q356.768,407.312,349.07,407.258Z" data-name="Pfad 55"/>
<path transform="translate(-290.56 -329.53)" d="m354.86 340.53c1.767 0.626 3.966 1.873 4.243 3.932 0.273 2.025-1.551 3.551-3.178 4.356a15.3 15.3 0 0 1-5.61 1.376 12.407 12.407 0 0 0 7.012-1.615c1.777-1.125 3.077-3.164 2.14-5.266-0.907-2.035-3.17-3.131-5.209-3.688-3.912-1.069-9.209-0.519-12.029 2.679a10.46 10.46 0 0 1 5.831-2.448 14.975 14.975 0 0 1 6.8 0.674z" data-name="Pfad 56"/>
<path transform="translate(-306.56 -331.08)" d="M393.745,346.533c.093,1.856-.034,3.75-.04,5.61-.006,1.886.016,3.773.042,5.659a6.068,6.068,0,0,0,.235,2.575,1.943,1.943,0,0,0,1.757,1.052,1.888,1.888,0,0,1-1.614-1.03,5.383,5.383,0,0,1-.172-2.394c.026-1.88.045-3.76.046-5.639s.043-3.767-.041-5.641a2.92,2.92,0,0,0-2.938-2.884A2.849,2.849,0,0,1,393.745,346.533Z" data-name="Pfad 57"/>
<path transform="translate(-310.65 -338.94)" d="m409.92 367.93a2.456 2.456 0 0 0-1.29 8e-3 43.8 43.8 0 0 0-5.137 1.137c1.976-0.065 3.907-0.526 5.869-0.648a1.779 1.779 0 0 1 1.643 1.34 1.586 1.586 0 0 0-1.085-1.837z" data-name="Pfad 58"/>
</g>
</g>
</g>
</svg>
