<?xml version="1.0" encoding="UTF-8"?>
<svg viewBox="0 0 354.18 202.12" xmlns="http://www.w3.org/2000/svg">
<g transform="translate(.5 28.5)" stroke="#91c3d3">
<path transform="translate(-181.87 -31.995)" d="m198.76 40.44a8.444 8.444 0 1 0-10.444 8.195v102.2q0 11.019 1.012 22l0.988 10.716 0.988-10.716q1.011-10.973 1.012-22v-102.2a8.439 8.439 0 0 0 6.444-8.195z" fill="#4d4d4d" data-name="Pfad 209"/>
<path transform="translate(-181.87 -31.995)" d="M187.844,46.393a6.55,6.55,0,0,1-3.3-9.969c2.585-3.748,8.5-3.893,10.9.116a6.332,6.332,0,1,0-7.6,9.853Z" fill="#fff" data-name="Pfad 210"/>
<path transform="translate(-181.87 -31.995)" d="M191.145,51.268l.225,17.311c.035,5.193.077,11.252.122,17.743.017,6.492.035,13.416.053,20.34-.018,6.925-.036,13.849-.053,20.34-.044,6.492-.086,12.551-.122,17.744l-.225,17.311s-.09-6.924-.225-17.311c-.036-5.193-.077-11.252-.122-17.744-.016-6.491-.034-13.415-.052-20.34.018-6.924.036-13.848.053-20.34.045-6.491.086-12.55.122-17.743C191.056,58.192,191.145,51.268,191.145,51.268Z" fill="#fff" data-name="Pfad 211"/>
</g>
<g transform="translate(52.138 2.505)" stroke="#91c3d3" data-name="Gruppe 24">
<path d="m161.31 32a2 2 0 0 0-2 2v116.84q0 11.019 1.012 22l0.988 10.716 0.988-10.716q1.011-10.973 1.012-22v-116.84a2 2 0 0 0-2-1.995z" fill="#4d4d4d" data-name="Pfad 212"/>
<path d="M161.312,33.744a.794.794,0,0,0-.793.794V50.474a.793.793,0,1,0,1.586,0V34.538A.794.794,0,0,0,161.312,33.744Z" fill="#fff" data-name="Pfad 213"/>
<path d="M162.145,57.25s.09,6.551.224,16.376c.036,4.913.078,10.645.122,16.786.017,6.141.036,12.691.054,19.242-.018,6.55-.036,13.1-.053,19.241-.044,6.142-.086,11.873-.122,16.786l-.225,16.376s-.09-6.55-.225-16.376c-.036-4.913-.077-10.644-.122-16.786-.017-6.141-.035-12.691-.052-19.241.018-6.551.036-13.1.053-19.242.044-6.141.086-11.873.122-16.786C162.055,63.8,162.145,57.25,162.145,57.25Z" fill="#fff" data-name="Pfad 214"/>
</g>
<g transform="translate(336.79 .5)" stroke="#91c3d3" data-name="Stecknadel">
<path transform="translate(-181.87 -31.995)" d="m198.76 40.44a8.444 8.444 0 1 0-10.444 8.195v102.2q0 11.019 1.012 22l0.988 10.716 0.988-10.716q1.011-10.973 1.012-22v-102.2a8.439 8.439 0 0 0 6.444-8.195z" fill="#4d4d4d" data-name="Pfad 209"/>
<path transform="translate(-181.87 -31.995)" d="M187.844,46.393a6.55,6.55,0,0,1-3.3-9.969c2.585-3.748,8.5-3.893,10.9.116a6.332,6.332,0,1,0-7.6,9.853Z" fill="#fff" data-name="Pfad 210"/>
<path transform="translate(-181.87 -31.995)" d="M191.145,51.268l.225,17.311c.035,5.193.077,11.252.122,17.743.017,6.492.035,13.416.053,20.34-.018,6.925-.036,13.849-.053,20.34-.044,6.492-.086,12.551-.122,17.744l-.225,17.311s-.09-6.924-.225-17.311c-.036-5.193-.077-11.252-.122-17.744-.016-6.491-.034-13.415-.052-20.34.018-6.924.036-13.848.053-20.34.045-6.491.086-12.55.122-17.743C191.056,58.192,191.145,51.268,191.145,51.268Z" fill="#fff" data-name="Pfad 211"/>
</g>
<g transform="translate(163.98 16.5)" stroke="#91c3d3" data-name="Stecknadel">
<path transform="translate(-181.87 -31.995)" d="m198.76 40.44a8.444 8.444 0 1 0-10.444 8.195v102.2q0 11.019 1.012 22l0.988 10.716 0.988-10.716q1.011-10.973 1.012-22v-102.2a8.439 8.439 0 0 0 6.444-8.195z" fill="#4d4d4d" data-name="Pfad 209"/>
<path transform="translate(-181.87 -31.995)" d="M187.844,46.393a6.55,6.55,0,0,1-3.3-9.969c2.585-3.748,8.5-3.893,10.9.116a6.332,6.332,0,1,0-7.6,9.853Z" fill="#fff" data-name="Pfad 210"/>
<path transform="translate(-181.87 -31.995)" d="M191.145,51.268l.225,17.311c.035,5.193.077,11.252.122,17.743.017,6.492.035,13.416.053,20.34-.018,6.925-.036,13.849-.053,20.34-.044,6.492-.086,12.551-.122,17.744l-.225,17.311s-.09-6.924-.225-17.311c-.036-5.193-.077-11.252-.122-17.744-.016-6.491-.034-13.415-.052-20.34.018-6.924.036-13.848.053-20.34.045-6.491.086-12.55.122-17.743C191.056,58.192,191.145,51.268,191.145,51.268Z" fill="#fff" data-name="Pfad 211"/>
</g>
<g transform="translate(166.56 2.505)" stroke="#91c3d3" data-name="Gruppe 62">
<path d="m161.31 32a2 2 0 0 0-2 2v116.84q0 11.019 1.012 22l0.988 10.716 0.988-10.716q1.011-10.973 1.012-22v-116.84a2 2 0 0 0-2-1.995z" fill="#4d4d4d" data-name="Pfad 212"/>
<path d="M161.312,33.744a.794.794,0,0,0-.793.794V50.474a.793.793,0,1,0,1.586,0V34.538A.794.794,0,0,0,161.312,33.744Z" fill="#fff" data-name="Pfad 213"/>
<path d="M162.145,57.25s.09,6.551.224,16.376c.036,4.913.078,10.645.122,16.786.017,6.141.036,12.691.054,19.242-.018,6.55-.036,13.1-.053,19.241-.044,6.142-.086,11.873-.122,16.786l-.225,16.376s-.09-6.55-.225-16.376c-.036-4.913-.077-10.644-.122-16.786-.017-6.141-.035-12.691-.052-19.241.018-6.551.036-13.1.053-19.242.044-6.141.086-11.873.122-16.786C162.055,63.8,162.145,57.25,162.145,57.25Z" fill="#fff" data-name="Pfad 214"/>
</g>
<g transform="translate(230.37 50.513)" stroke="#91c3d3" data-name="Stecknadel">
<path transform="translate(-181.87 -31.995)" d="m198.76 40.44a8.444 8.444 0 1 0-10.444 8.195v102.2q0 11.019 1.012 22l0.988 10.716 0.988-10.716q1.011-10.973 1.012-22v-102.2a8.439 8.439 0 0 0 6.444-8.195z" fill="#4d4d4d" data-name="Pfad 209"/>
<path transform="translate(-181.87 -31.995)" d="M187.844,46.393a6.55,6.55,0,0,1-3.3-9.969c2.585-3.748,8.5-3.893,10.9.116a6.332,6.332,0,1,0-7.6,9.853Z" fill="#fff" data-name="Pfad 210"/>
<path transform="translate(-181.87 -31.995)" d="M191.145,51.268l.225,17.311c.035,5.193.077,11.252.122,17.743.017,6.492.035,13.416.053,20.34-.018,6.925-.036,13.849-.053,20.34-.044,6.492-.086,12.551-.122,17.744l-.225,17.311s-.09-6.924-.225-17.311c-.036-5.193-.077-11.252-.122-17.744-.016-6.491-.034-13.415-.052-20.34.018-6.924.036-13.848.053-20.34.045-6.491.086-12.55.122-17.743C191.056,58.192,191.145,51.268,191.145,51.268Z" fill="#fff" data-name="Pfad 211"/>
</g>
<g transform="translate(300.08 16.5)" stroke="#91c3d3" data-name="Stecknadel">
<path transform="translate(-181.87 -31.995)" d="m198.76 40.44a8.444 8.444 0 1 0-10.444 8.195v102.2q0 11.019 1.012 22l0.988 10.716 0.988-10.716q1.011-10.973 1.012-22v-102.2a8.439 8.439 0 0 0 6.444-8.195z" fill="#4d4d4d" data-name="Pfad 209"/>
<path transform="translate(-181.87 -31.995)" d="M187.844,46.393a6.55,6.55,0,0,1-3.3-9.969c2.585-3.748,8.5-3.893,10.9.116a6.332,6.332,0,1,0-7.6,9.853Z" fill="#fff" data-name="Pfad 210"/>
<path transform="translate(-181.87 -31.995)" d="M191.145,51.268l.225,17.311c.035,5.193.077,11.252.122,17.743.017,6.492.035,13.416.053,20.34-.018,6.925-.036,13.849-.053,20.34-.044,6.492-.086,12.551-.122,17.744l-.225,17.311s-.09-6.924-.225-17.311c-.036-5.193-.077-11.252-.122-17.744-.016-6.491-.034-13.415-.052-20.34.018-6.924.036-13.848.053-20.34.045-6.491.086-12.55.122-17.743C191.056,58.192,191.145,51.268,191.145,51.268Z" fill="#fff" data-name="Pfad 211"/>
</g>
<g transform="translate(-35.261 -166.44)" stroke="#91c3d3" data-name="Gruppe 19">
<path d="m180.9 273.72c-0.941-8.949-3.719-34.226-5.8-41.21-2.382-7.965-18.245-7.806-18.245-7.806s-15.862-0.159-18.245 7.806c-2.08 6.984-4.859 32.261-5.8 41.21s-13.342 13.483 12.62 18.019a66.414 66.414 0 0 0 22.849 0c25.959-4.541 12.621-18.019 12.621-18.019z" fill="#4d4d4d" data-name="Pfad 134"/>
<path d="m140.52 232.42a60.212 60.212 0 0 0 16.469 2.677 61.164 61.164 0 0 0 16.47-2.677 37.17 37.17 0 0 1-32.939 0z" fill="#fff" data-name="Pfad 135"/>
<path d="m133.18 276.23c-1 3.442 2.924 5.69 5.559 6.664a40.96 40.96 0 0 0 11.363 2.054 92.863 92.863 0 0 0 12.041 0.112 51.659 51.659 0 0 0 11.51-1.733c2.981-0.883 7.965-3.111 6.879-7.1 1.817 3.323-2.278 6.283-4.845 7.378a35.6 35.6 0 0 1-11.636 2.34 97.089 97.089 0 0 1-12.9 0.1 46.286 46.286 0 0 1-11.733-1.915 12.109 12.109 0 0 1-5.206-3.036c-1.136-1.267-1.882-3.24-1.032-4.864z" fill="#fff" data-name="Pfad 136"/>
<g fill="#fff" data-name="Gruppe 18">
<path d="M178.527,264.911a1.052,1.052,0,0,0,1.11.983,1.212,1.212,0,0,0,.4-.071c-.068-.605-.139-1.229-.211-1.863a1.3,1.3,0,0,0-.188-.033A1.052,1.052,0,0,0,178.527,264.911Z" data-name="Pfad 137"/>
<path d="M174.722,265.8a.991.991,0,1,0,1.11.983A1.052,1.052,0,0,0,174.722,265.8Z" data-name="Pfad 138"/>
<path d="M169.7,267.2a.991.991,0,1,0,1.11.984A1.053,1.053,0,0,0,169.7,267.2Z" data-name="Pfad 139"/>
<path d="M164.59,268.13a.991.991,0,1,0,1.11.984A1.052,1.052,0,0,0,164.59,268.13Z" data-name="Pfad 140"/>
<path d="M159.436,268.6a.991.991,0,1,0,1.11.984A1.053,1.053,0,0,0,159.436,268.6Z" data-name="Pfad 141"/>
<ellipse transform="translate(153.16 268.6)" cx="1.11" cy=".984" rx="1.11" ry=".984" data-name="Ellipse 1"/>
<path d="m149.11 268.13a0.991 0.991 0 1 0 1.11 0.984 1.052 1.052 0 0 0-1.11-0.984z" data-name="Pfad 142"/>
<ellipse transform="translate(142.9 267.19)" cx="1.11" cy=".984" rx="1.11" ry=".984" data-name="Ellipse 2"/>
<ellipse transform="translate(137.87 265.79)" cx="1.11" cy=".984" rx="1.11" ry=".984" data-name="Ellipse 3"/>
<path d="M135.175,264.911a1.052,1.052,0,0,0-1.11-.984,1.282,1.282,0,0,0-.187.033c-.073.634-.144,1.258-.212,1.863a1.221,1.221,0,0,0,.4.071A1.052,1.052,0,0,0,135.175,264.911Z" data-name="Pfad 143"/>
<path d="M178.186,260.209a1.042,1.042,0,0,0,1.092.983,1.161,1.161,0,0,0,.222-.04q-.112-.953-.228-1.926A1.04,1.04,0,0,0,178.186,260.209Z" data-name="Pfad 144"/>
<ellipse transform="translate(173.35 261.08)" cx="1.092" cy=".984" rx="1.092" ry=".984" data-name="Ellipse 4"/>
<path d="m169.49 264.44a0.989 0.989 0 1 0-1.092-0.984 1.043 1.043 0 0 0 1.092 0.984z" data-name="Pfad 145"/>
<ellipse transform="translate(163.38 263.4)" cx="1.092" cy=".984" rx="1.092" ry=".984" data-name="Ellipse 5"/>
<path d="M159.4,265.836a.989.989,0,1,0-1.092-.983A1.042,1.042,0,0,0,159.4,265.836Z" data-name="Pfad 146"/>
<path d="m154.31 263.87a0.989 0.989 0 1 0 1.092 0.984 1.042 1.042 0 0 0-1.092-0.984z" data-name="Pfad 147"/>
<path d="M149.235,263.4a.989.989,0,1,0,1.092.983A1.042,1.042,0,0,0,149.235,263.4Z" data-name="Pfad 148"/>
<path d="m144.21 262.48a0.989 0.989 0 1 0 1.092 0.983 1.042 1.042 0 0 0-1.092-0.983z" data-name="Pfad 149"/>
<ellipse transform="translate(138.17 261.08)" cx="1.092" cy=".984" rx="1.092" ry=".984" data-name="Ellipse 6"/>
<path d="M135.517,260.209a1.041,1.041,0,0,0-1.086-.983q-.117.973-.228,1.926a1.165,1.165,0,0,0,.221.04A1.042,1.042,0,0,0,135.517,260.209Z" data-name="Pfad 150"/>
<path d="M177.589,255.506a1.024,1.024,0,0,0,1.061.984,1.107,1.107,0,0,0,.284-.053q-.117-.95-.237-1.906c-.016,0-.03-.008-.047-.008A1.024,1.024,0,0,0,177.589,255.506Z" data-name="Pfad 151"/>
<path d="m175.01 257.36a1.065 1.065 0 1 0-1.062 0.984 1.024 1.024 0 0 0 1.062-0.984z" data-name="Pfad 152"/>
<ellipse transform="translate(168.08 257.77)" cx="1.062" cy=".984" rx="1.062" ry=".984" data-name="Ellipse 7"/>
<path d="m164.26 260.67a0.986 0.986 0 1 0-1.062-0.984 1.024 1.024 0 0 0 1.062 0.984z" data-name="Pfad 153"/>
<path d="m159.32 261.14a0.987 0.987 0 1 0-1.062-0.984 1.026 1.026 0 0 0 1.062 0.984z" data-name="Pfad 154"/>
<ellipse transform="translate(153.32 259.17)" cx="1.062" cy=".984" rx="1.062" ry=".984" data-name="Ellipse 8"/>
<path d="m149.45 258.71a0.987 0.987 0 1 0 1.062 0.984 1.025 1.025 0 0 0-1.062-0.984z" data-name="Pfad 155"/>
<path d="m144.56 257.78a0.986 0.986 0 1 0 1.062 0.984 1.025 1.025 0 0 0-1.062-0.984z" data-name="Pfad 156"/>
<path d="m139.75 256.38a0.987 0.987 0 1 0 1.062 0.984 1.026 1.026 0 0 0-1.062-0.984z" data-name="Pfad 157"/>
<path d="M136.114,255.506a1.025,1.025,0,0,0-1.062-.983c-.016,0-.03.008-.046.008q-.12.955-.237,1.906a1.108,1.108,0,0,0,.283.053A1.025,1.025,0,0,0,136.114,255.506Z" data-name="Pfad 158"/>
<path d="M177.014,250.8a1.009,1.009,0,0,0,1.033.984,1.05,1.05,0,0,0,.292-.056q-.125-.957-.251-1.9c-.015,0-.027-.008-.041-.008A1.009,1.009,0,0,0,177.014,250.8Z" data-name="Pfad 159"/>
<path d="m174.47 252.66a1.034 1.034 0 1 0-1.032 0.984 1.009 1.009 0 0 0 1.032-0.984z" data-name="Pfad 160"/>
<ellipse transform="translate(167.7 253.07)" cx="1.032" cy=".984" rx="1.032" ry=".984" data-name="Ellipse 9"/>
<path d="m163.97 255.97a0.985 0.985 0 1 0-1.033-0.984 1.008 1.008 0 0 0 1.033 0.984z" data-name="Pfad 161"/>
<path d="m159.17 256.43a0.985 0.985 0 1 0-1.032-0.984 1.009 1.009 0 0 0 1.032 0.984z" data-name="Pfad 162"/>
<path d="m154.36 256.44a0.985 0.985 0 1 0-1.032-0.984 1.009 1.009 0 0 0 1.032 0.984z" data-name="Pfad 163"/>
<path d="m149.57 254a0.985 0.985 0 1 0 1.032 0.984 1.009 1.009 0 0 0-1.032-0.984z" data-name="Pfad 164"/>
<path d="M144.84,253.077a.985.985,0,1,0,1.032.984A1.008,1.008,0,0,0,144.84,253.077Z" data-name="Pfad 165"/>
<path d="m140.19 251.68a0.985 0.985 0 1 0 1.033 0.983 1.008 1.008 0 0 0-1.033-0.983z" data-name="Pfad 166"/>
<path d="M136.688,250.8a1.008,1.008,0,0,0-1.032-.983c-.015,0-.027.007-.042.008q-.126.947-.251,1.9a1.056,1.056,0,0,0,.293.056A1.008,1.008,0,0,0,136.688,250.8Z" data-name="Pfad 167"/>
<path d="M176.582,246.1a1,1,0,0,0,1.01.984.948.948,0,0,0,.118-.023q-.137-.971-.272-1.914A.979.979,0,0,0,176.582,246.1Z" data-name="Pfad 168"/>
<path d="m174.13 247.96a1.01 1.01 0 1 0-1.01 0.983 1 1 0 0 0 1.01-0.983z" data-name="Pfad 169"/>
<path d="m168.54 250.33a0.984 0.984 0 1 0-1.01-0.984 1 1 0 0 0 1.01 0.984z" data-name="Pfad 170"/>
<path d="m163.9 251.26a0.984 0.984 0 1 0-1.01-0.984 1 1 0 0 0 1.01 0.984z" data-name="Pfad 171"/>
<path d="M159.2,249.763a.984.984,0,1,0,1.01.983A1,1,0,0,0,159.2,249.763Z" data-name="Pfad 172"/>
<path d="M154.5,249.765a.984.984,0,1,0,1.01.983A1,1,0,0,0,154.5,249.765Z" data-name="Pfad 173"/>
<path d="M149.807,249.3a.984.984,0,1,0,1.01.984A1,1,0,0,0,149.807,249.3Z" data-name="Pfad 174"/>
<path d="m145.16 248.37a0.984 0.984 0 1 0 1.011 0.984 1 1 0 0 0-1.011-0.984z" data-name="Pfad 175"/>
<path d="m140.58 246.98a0.984 0.984 0 1 0 1.01 0.984 1 1 0 0 0-1.01-0.984z" data-name="Pfad 176"/>
<path d="M137.12,246.1a.979.979,0,0,0-.855-.953q-.137.943-.272,1.914a.9.9,0,0,0,.117.023A1,1,0,0,0,137.12,246.1Z" data-name="Pfad 177"/>
<path d="M176.066,241.4a.981.981,0,0,0,.957.979c-.1-.649-.2-1.283-.3-1.9A.974.974,0,0,0,176.066,241.4Z" data-name="Pfad 178"/>
<path d="M173.641,243.255a.984.984,0,1,0-.983.984A.983.983,0,0,0,173.641,243.255Z" data-name="Pfad 179"/>
<path d="M169.159,244.648a.983.983,0,1,0-.983.984A.983.983,0,0,0,169.159,244.648Z" data-name="Pfad 180"/>
<path d="M163.632,246.562a.984.984,0,1,0-.984-.984A.984.984,0,0,0,163.632,246.562Z" data-name="Pfad 181"/>
<path d="M159.054,247.028a.983.983,0,1,0-.984-.984A.984.984,0,0,0,159.054,247.028Z" data-name="Pfad 182"/>
<path d="M154.471,247.03a.983.983,0,1,0-.984-.983A.983.983,0,0,0,154.471,247.03Z" data-name="Pfad 183"/>
<path d="M149.911,244.6a.984.984,0,1,0,.984.984A.983.983,0,0,0,149.911,244.6Z" data-name="Pfad 184"/>
<path d="M145.4,243.672a.984.984,0,1,0,.984.984A.984.984,0,0,0,145.4,243.672Z" data-name="Pfad 185"/>
<path d="M140.974,242.278a.983.983,0,1,0,.984.983A.984.984,0,0,0,140.974,242.278Z" data-name="Pfad 186"/>
<path d="M137.637,241.4a.974.974,0,0,0-.657-.917c-.1.613-.2,1.247-.3,1.9A.981.981,0,0,0,137.637,241.4Z" data-name="Pfad 187"/>
<path d="M175.173,236.7a.962.962,0,0,0,.938.984.84.84,0,0,0,.123-.026c-.121-.667-.242-1.3-.362-1.891A.963.963,0,0,0,175.173,236.7Z" data-name="Pfad 188"/>
<path d="M172.9,238.563a.939.939,0,1,0-.938.984A.962.962,0,0,0,172.9,238.563Z" data-name="Pfad 189"/>
<path d="M168.646,239.959a.939.939,0,1,0-.938.983A.961.961,0,0,0,168.646,239.959Z" data-name="Pfad 190"/>
<path d="M163.392,241.871a.985.985,0,1,0-.938-.984A.962.962,0,0,0,163.392,241.871Z" data-name="Pfad 191"/>
<path d="M159.036,242.332a.985.985,0,1,0-.938-.984A.962.962,0,0,0,159.036,242.332Z" data-name="Pfad 192"/>
<path d="M154.666,240.361a.985.985,0,1,0,.939.983A.961.961,0,0,0,154.666,240.361Z" data-name="Pfad 193"/>
<path d="M150.31,239.893a.985.985,0,1,0,.938.983A.961.961,0,0,0,150.31,239.893Z" data-name="Pfad 194"/>
<path d="M145.994,238.961a.985.985,0,1,0,.938.984A.962.962,0,0,0,145.994,238.961Z" data-name="Pfad 195"/>
<path d="M141.746,237.568a.985.985,0,1,0,.938.984A.962.962,0,0,0,141.746,237.568Z" data-name="Pfad 196"/>
<path d="M138.529,236.7a.962.962,0,0,0-.7-.933c-.12.59-.241,1.224-.363,1.891a.84.84,0,0,0,.123.026A.962.962,0,0,0,138.529,236.7Z" data-name="Pfad 197"/>
</g>
</g>
<g transform="translate(265.77 34.5)" stroke="#91c3d3" data-name="Stecknadel">
<path transform="translate(-199.74 -323.38)" d="m227.13 351.72v-14.2c0-7.54-5.9-14.009-13.439-14.147a13.7 13.7 0 0 0-13.951 13.693v15.854a1.073 1.073 0 0 0 1.157 1.067c-1.023 15.658-3.033 59.273 5.056 73.948a7.882 7.882 0 0 0 14.963 0c8.306-15.07 5.963-60.658 4.976-75.151a1.088 1.088 0 0 0 1.238-1.064zm-13.695 78.368c-2.667 0-4.837-2.446-4.837-5.453s2.169-5.452 4.837-5.452 4.836 2.445 4.836 5.452-2.17 5.452-4.836 5.452zm6.972-9.85a7.794 7.794 0 0 0-13.943 0c-4.9-18-3.084-54.246-2.244-67.005 3.136-0.979 7.027-2.967 8.554-6.962a2.287 2.287 0 0 0 0.068-1.518 14.149 14.149 0 0 1-0.67-3.6 1.05 1.05 0 0 0-0.545-0.872 5.538 5.538 0 0 1-2.684-4.951c0-3 2.011-5.438 4.492-5.438s4.491 2.434 4.491 5.438a5.482 5.482 0 0 1-2.964 5.112 1.046 1.046 0 0 0-0.62 1.041c0.181 2.4 1.4 7.547 8.21 10.288 0.776 11.188 2.962 49.723-2.145 68.467z" fill="#4d4d4d" data-name="Pfad 27"/>
<g transform="translate(.557 1.87)" fill="#fff" data-name="Gruppe 5">
<path transform="translate(-197.25 -327.15)" d="M211.038,328.483a2.88,2.88,0,0,0-3.562-1.082,3.72,3.72,0,0,0-1.969,3.8,3.9,3.9,0,0,0,.817,1.971c.208.258.549.46.684.765a5.612,5.612,0,0,1,.232.982c.273,1.2-1.157,2.215-2.1,2.7.941-.336,2.478-1.274,2.444-2.422a3.03,3.03,0,0,0-.487-1.743,3.976,3.976,0,0,1-1.126-1.873,3.5,3.5,0,0,1,1.753-3.96,2.85,2.85,0,0,1,3.416,1.02l-.1-.157C210.968,328.385,211.1,328.586,211.038,328.483Z" data-name="Pfad 28"/>
<path transform="translate(-200.87 -280.68)" d="M206.567,381.595a3.1,3.1,0,0,1,.519.035,2.734,2.734,0,0,1,1.337.612,3.343,3.343,0,0,1,1.142,1.983,3.461,3.461,0,0,1-.766,2.862,3,3,0,0,1-1.466.938,2.9,2.9,0,0,1-.919.106,3.472,3.472,0,0,1-.942-.137,2.9,2.9,0,0,1-1.52-1.235,7.1,7.1,0,0,1-.888-1.819,30.053,30.053,0,0,1-1.038-4.062c-.281-1.4-.48-2.835-.656-4.272-.152-1.44-.279-2.883-.35-4.305-.05-.711-.076-1.417-.092-2.115s-.049-1.387-.053-2.064c.011-1.356-.028-2.667.025-3.91s.047-2.417.122-3.5c.06-1.083.114-2.075.163-2.955.071-.878.134-1.644.185-2.274l.162-1.981-.141,1.983c-.045.631-.1,1.4-.16,2.275-.039.88-.084,1.873-.132,2.955-.063,1.082-.054,2.257-.084,3.5s.013,2.551.017,3.9c.011.677.051,1.364.075,2.06s.057,1.4.114,2.109c.086,1.419.228,2.855.4,4.289s.379,2.861.66,4.252a29.81,29.81,0,0,0,1.035,4.026,6.935,6.935,0,0,0,.857,1.756,2.646,2.646,0,0,0,1.382,1.135,3.223,3.223,0,0,0,.87.126,2.639,2.639,0,0,0,.844-.1,2.748,2.748,0,0,0,1.341-.859,3.321,3.321,0,0,0,.76-2.658,3.189,3.189,0,0,0-1.014-1.931,2.873,2.873,0,0,0-1.27-.662A3.105,3.105,0,0,0,206.567,381.595Z" data-name="Pfad 29"/>
<path transform="translate(-195.27 -279.72)" d="M220.823,351.617s.249,2.05.467,5.14c.046.773.1,1.611.148,2.5.036.887.1,1.821.11,2.79s.05,1.968.049,2.985c.014,1.017,0,2.049-.02,3.083s-.077,2.065-.118,3.081-.144,2.013-.209,2.98c-.083.965-.211,1.894-.31,2.776-.124.879-.273,1.706-.394,2.472s-.314,1.452-.446,2.067a15.354,15.354,0,0,1-.426,1.573l-.413,1.358s.136-.5.373-1.369a15.311,15.311,0,0,0,.379-1.582c.113-.618.276-1.308.4-2.072s.243-1.592.352-2.47c.084-.882.193-1.809.275-2.772.06-.964.155-1.959.193-2.973s.1-2.044.1-3.075c.025-1.031.045-2.061.036-3.077.006-1.015-.012-2.014-.033-2.98-.039-1.934-.1-3.738-.182-5.283l-.115-2.109c-.041-.627-.076-1.174-.1-1.625C220.863,352.131,220.823,351.617,220.823,351.617Z" data-name="Pfad 30"/>
</g>
</g>
<g transform="translate(17.277 38.324)" stroke="#91c3d3" data-name="Stecknadel offen">
<path transform="translate(-125.12 -323.38)" d="m187.04 352.69v-14.682c0-7.8-6.1-14.49-13.9-14.633a14.165 14.165 0 0 0-14.429 14.162v16.4a1.118 1.118 0 0 0 1.294 1.11c2.926-0.471 9.97-2.19 12.187-7.992a2.769 2.769 0 0 0 0.071-1.568 14.633 14.633 0 0 1-0.693-3.722 1.083 1.083 0 0 0-0.563-0.9 5.728 5.728 0 0 1-2.776-5.121c0-3.107 2.08-5.624 4.646-5.624s4.645 2.518 4.645 5.624a5.665 5.665 0 0 1-3.074 5.291 1.066 1.066 0 0 0-0.633 1.067c0.185 2.477 1.438 7.809 8.492 10.647 0.8 11.568 3.063 51.426-2.219 70.812a8.276 8.276 0 0 0-7.211-4.458 8.638 8.638 0 0 0-8.325 8.092c-12.659-14.953-27-51.313-31.437-63.05q-1.489-3.938-3.266-7.757l-4.731-10.151 1.794 7.977a109.79 109.79 0 0 0 4.758 15.605c6.2 15.979 20.518 50.418 33.129 62.551 0.875 0.843 1.715 1.713 2.6 2.542a8 8 0 0 0 5.475 2.2 8.4 8.4 0 0 0 7.738-5.587c8.591-15.587 6.167-62.738 5.145-77.729a1.126 1.126 0 0 0 1.283-1.106zm-14.165 81.055c-2.758 0-5-2.53-5-5.64s2.244-5.639 5-5.639 5 2.529 5 5.639-2.242 5.64-5 5.64z" fill="#4d4d4d" data-name="Pfad 31"/>
<g transform="translate(2.865 2.186)" fill="#fff" data-name="Gruppe 7">
<path transform="translate(-112.87 -327.16)" d="M167.458,328.892a3.328,3.328,0,0,0-3.988-1.191,4.088,4.088,0,0,0-2.046,4.622,4.631,4.631,0,0,0,1.314,2.186,3.588,3.588,0,0,1,.569,2.034c.04,1.339-1.756,2.436-2.853,2.828,1.107-.568,2.776-1.747,2.457-3.153a6.464,6.464,0,0,0-.27-1.146c-.158-.357-.554-.589-.8-.893a4.532,4.532,0,0,1-.973-2.491,4.273,4.273,0,0,1,2.574-4.344A3.37,3.37,0,0,1,167.458,328.892Z" data-name="Pfad 32"/>
<path transform="translate(-130.08 -285.58)" d="M174.081,389.073c.011.012.419-.114,1.3-.223a15.211,15.211,0,0,1,3.93.038,10.926,10.926,0,0,1,4.814,1.727c1.252.922,1.833,2.318.651,3.6a6.526,6.526,0,0,1-3.024,1.618,16.423,16.423,0,0,1-4.816.569,17.524,17.524,0,0,1-4.763-.984,14.472,14.472,0,0,1-2.031-.811c-.61-.3-1.222-.607-1.8-.927-2.353-1.271-4.593-2.652-6.746-4.093-1.079-.719-2.106-1.463-3.164-2.2l-3.023-2.265-2.9-2.3-2.739-2.314c-.925-.763-1.747-1.541-2.592-2.3-.826-.766-1.692-1.512-2.439-2.268-1.513-1.508-3.061-2.949-4.346-4.353-1.319-1.4-2.61-2.708-3.634-3.951l-2.889-3.372-2.049-2.631-1.748-2.3,1.995,2.255,2.245,2.594,3.045,3.339c1.083,1.23,2.4,2.533,3.705,3.93,1.285,1.4,2.831,2.837,4.344,4.342.745.755,1.618,1.5,2.431,2.263.834.762,1.645,1.541,2.557,2.3l2.7,2.316,2.859,2.3,3.013,2.257c1.057.734,2.083,1.474,3.159,2.19,2.148,1.432,4.381,2.8,6.717,4.062.577.317,1.182.618,1.782.913a13.9,13.9,0,0,0,1.943.776,16.417,16.417,0,0,0,4.435.928,15.153,15.153,0,0,0,4.405-.525,5.962,5.962,0,0,0,2.756-1.476,1.964,1.964,0,0,0,.581-1.79,2.9,2.9,0,0,0-1.089-1.57,9.73,9.73,0,0,0-4.438-1.723,15.942,15.942,0,0,0-3.818-.126C174.523,388.971,174.087,389.085,174.081,389.073Z" data-name="Pfad 33"/>
<path transform="translate(-118.83 -282.33)" d="M176.4,351.617s.291,2.393.546,6c.053.9.111,1.88.172,2.914.042,1.035.112,2.126.128,3.256s.058,2.3.057,3.485c.017,1.187,0,2.392-.023,3.6s-.09,2.41-.138,3.6-.168,2.35-.244,3.478c-.1,1.126-.247,2.211-.362,3.241-.144,1.026-.319,1.992-.46,2.885s-.366,1.7-.521,2.413a17.927,17.927,0,0,1-.5,1.836l-.483,1.585s.159-.581.436-1.6a17.872,17.872,0,0,0,.443-1.846c.132-.722.322-1.527.462-2.418s.284-1.858.411-2.884c.1-1.03.225-2.112.321-3.236.071-1.126.181-2.287.225-3.47s.114-2.385.119-3.589c.028-1.2.053-2.406.042-3.591.008-1.185-.014-2.351-.038-3.479-.046-2.257-.122-4.363-.212-6.167l-.134-2.462c-.047-.732-.088-1.371-.122-1.9C176.449,352.217,176.4,351.617,176.4,351.617Z" data-name="Pfad 34"/>
</g>
</g>
</svg> 
