<svg xmlns="http://www.w3.org/2000/svg" width="354.176" height="202.12" viewBox="0 0 354.176 202.12">
  <g id="Stecknadel" transform="translate(0.5 28.5)">
    <path id="Pfad_209" data-name="Pfad 209" d="M198.756,40.44a8.444,8.444,0,1,0-10.444,8.195v102.2q0,11.019,1.012,22l.988,10.716.988-10.716q1.011-10.973,1.012-22V48.635A8.439,8.439,0,0,0,198.756,40.44Z" transform="translate(-181.868 -31.995)" fill="#4d4d4d" stroke="#91c3d3" stroke-width="1"/>
    <path id="Pfad_210" data-name="Pfad 210" d="M187.844,46.393a6.55,6.55,0,0,1-3.3-9.969c2.585-3.748,8.5-3.893,10.9.116a6.332,6.332,0,1,0-7.6,9.853Z" transform="translate(-181.868 -31.995)" fill="#fff" stroke="#91c3d3" stroke-width="1"/>
    <path id="Pfad_211" data-name="Pfad 211" d="M191.145,51.268l.225,17.311c.035,5.193.077,11.252.122,17.743.017,6.492.035,13.416.053,20.34-.018,6.925-.036,13.849-.053,20.34-.044,6.492-.086,12.551-.122,17.744l-.225,17.311s-.09-6.924-.225-17.311c-.036-5.193-.077-11.252-.122-17.744-.016-6.491-.034-13.415-.052-20.34.018-6.924.036-13.848.053-20.34.045-6.491.086-12.55.122-17.743C191.056,58.192,191.145,51.268,191.145,51.268Z" transform="translate(-181.868 -31.995)" fill="#fff" stroke="#91c3d3" stroke-width="1"/>
  </g>
  <g id="Gruppe_24" data-name="Gruppe 24" transform="translate(52.138 2.505)">
    <path id="Pfad_212" data-name="Pfad 212" d="M161.312,32a2,2,0,0,0-2,2V150.838q0,11.019,1.012,22l.988,10.716.988-10.716q1.011-10.973,1.012-22V33.995A2,2,0,0,0,161.312,32Z" fill="#4d4d4d" stroke="#91c3d3" stroke-width="1"/>
    <path id="Pfad_213" data-name="Pfad 213" d="M161.312,33.744a.794.794,0,0,0-.793.794V50.474a.793.793,0,1,0,1.586,0V34.538A.794.794,0,0,0,161.312,33.744Z" fill="#fff" stroke="#91c3d3" stroke-width="1"/>
    <path id="Pfad_214" data-name="Pfad 214" d="M162.145,57.25s.09,6.551.224,16.376c.036,4.913.078,10.645.122,16.786.017,6.141.036,12.691.054,19.242-.018,6.55-.036,13.1-.053,19.241-.044,6.142-.086,11.873-.122,16.786l-.225,16.376s-.09-6.55-.225-16.376c-.036-4.913-.077-10.644-.122-16.786-.017-6.141-.035-12.691-.052-19.241.018-6.551.036-13.1.053-19.242.044-6.141.086-11.873.122-16.786C162.055,63.8,162.145,57.25,162.145,57.25Z" fill="#fff" stroke="#91c3d3" stroke-width="1"/>
  </g>
  <g id="Stecknadel-2" data-name="Stecknadel" transform="translate(336.788 0.5)">
    <path id="Pfad_209-2" data-name="Pfad 209" d="M198.756,40.44a8.444,8.444,0,1,0-10.444,8.195v102.2q0,11.019,1.012,22l.988,10.716.988-10.716q1.011-10.973,1.012-22V48.635A8.439,8.439,0,0,0,198.756,40.44Z" transform="translate(-181.868 -31.995)" fill="#4d4d4d" stroke="#91c3d3" stroke-width="1"/>
    <path id="Pfad_210-2" data-name="Pfad 210" d="M187.844,46.393a6.55,6.55,0,0,1-3.3-9.969c2.585-3.748,8.5-3.893,10.9.116a6.332,6.332,0,1,0-7.6,9.853Z" transform="translate(-181.868 -31.995)" fill="#fff" stroke="#91c3d3" stroke-width="1"/>
    <path id="Pfad_211-2" data-name="Pfad 211" d="M191.145,51.268l.225,17.311c.035,5.193.077,11.252.122,17.743.017,6.492.035,13.416.053,20.34-.018,6.925-.036,13.849-.053,20.34-.044,6.492-.086,12.551-.122,17.744l-.225,17.311s-.09-6.924-.225-17.311c-.036-5.193-.077-11.252-.122-17.744-.016-6.491-.034-13.415-.052-20.34.018-6.924.036-13.848.053-20.34.045-6.491.086-12.55.122-17.743C191.056,58.192,191.145,51.268,191.145,51.268Z" transform="translate(-181.868 -31.995)" fill="#fff" stroke="#91c3d3" stroke-width="1"/>
  </g>
  <g id="Stecknadel-3" data-name="Stecknadel" transform="translate(163.98 16.5)">
    <path id="Pfad_209-3" data-name="Pfad 209" d="M198.756,40.44a8.444,8.444,0,1,0-10.444,8.195v102.2q0,11.019,1.012,22l.988,10.716.988-10.716q1.011-10.973,1.012-22V48.635A8.439,8.439,0,0,0,198.756,40.44Z" transform="translate(-181.868 -31.995)" fill="#4d4d4d" stroke="#91c3d3" stroke-width="1"/>
    <path id="Pfad_210-3" data-name="Pfad 210" d="M187.844,46.393a6.55,6.55,0,0,1-3.3-9.969c2.585-3.748,8.5-3.893,10.9.116a6.332,6.332,0,1,0-7.6,9.853Z" transform="translate(-181.868 -31.995)" fill="#fff" stroke="#91c3d3" stroke-width="1"/>
    <path id="Pfad_211-3" data-name="Pfad 211" d="M191.145,51.268l.225,17.311c.035,5.193.077,11.252.122,17.743.017,6.492.035,13.416.053,20.34-.018,6.925-.036,13.849-.053,20.34-.044,6.492-.086,12.551-.122,17.744l-.225,17.311s-.09-6.924-.225-17.311c-.036-5.193-.077-11.252-.122-17.744-.016-6.491-.034-13.415-.052-20.34.018-6.924.036-13.848.053-20.34.045-6.491.086-12.55.122-17.743C191.056,58.192,191.145,51.268,191.145,51.268Z" transform="translate(-181.868 -31.995)" fill="#fff" stroke="#91c3d3" stroke-width="1"/>
  </g>
  <g id="Gruppe_62" data-name="Gruppe 62" transform="translate(166.556 2.505)">
    <path id="Pfad_212-2" data-name="Pfad 212" d="M161.312,32a2,2,0,0,0-2,2V150.838q0,11.019,1.012,22l.988,10.716.988-10.716q1.011-10.973,1.012-22V33.995A2,2,0,0,0,161.312,32Z" fill="#4d4d4d" stroke="#91c3d3" stroke-width="1"/>
    <path id="Pfad_213-2" data-name="Pfad 213" d="M161.312,33.744a.794.794,0,0,0-.793.794V50.474a.793.793,0,1,0,1.586,0V34.538A.794.794,0,0,0,161.312,33.744Z" fill="#fff" stroke="#91c3d3" stroke-width="1"/>
    <path id="Pfad_214-2" data-name="Pfad 214" d="M162.145,57.25s.09,6.551.224,16.376c.036,4.913.078,10.645.122,16.786.017,6.141.036,12.691.054,19.242-.018,6.55-.036,13.1-.053,19.241-.044,6.142-.086,11.873-.122,16.786l-.225,16.376s-.09-6.55-.225-16.376c-.036-4.913-.077-10.644-.122-16.786-.017-6.141-.035-12.691-.052-19.241.018-6.551.036-13.1.053-19.242.044-6.141.086-11.873.122-16.786C162.055,63.8,162.145,57.25,162.145,57.25Z" fill="#fff" stroke="#91c3d3" stroke-width="1"/>
  </g>
  <g id="Stecknadel-4" data-name="Stecknadel" transform="translate(230.368 50.513)">
    <path id="Pfad_209-4" data-name="Pfad 209" d="M198.756,40.44a8.444,8.444,0,1,0-10.444,8.195v102.2q0,11.019,1.012,22l.988,10.716.988-10.716q1.011-10.973,1.012-22V48.635A8.439,8.439,0,0,0,198.756,40.44Z" transform="translate(-181.868 -31.995)" fill="#4d4d4d" stroke="#91c3d3" stroke-width="1"/>
    <path id="Pfad_210-4" data-name="Pfad 210" d="M187.844,46.393a6.55,6.55,0,0,1-3.3-9.969c2.585-3.748,8.5-3.893,10.9.116a6.332,6.332,0,1,0-7.6,9.853Z" transform="translate(-181.868 -31.995)" fill="#fff" stroke="#91c3d3" stroke-width="1"/>
    <path id="Pfad_211-4" data-name="Pfad 211" d="M191.145,51.268l.225,17.311c.035,5.193.077,11.252.122,17.743.017,6.492.035,13.416.053,20.34-.018,6.925-.036,13.849-.053,20.34-.044,6.492-.086,12.551-.122,17.744l-.225,17.311s-.09-6.924-.225-17.311c-.036-5.193-.077-11.252-.122-17.744-.016-6.491-.034-13.415-.052-20.34.018-6.924.036-13.848.053-20.34.045-6.491.086-12.55.122-17.743C191.056,58.192,191.145,51.268,191.145,51.268Z" transform="translate(-181.868 -31.995)" fill="#fff" stroke="#91c3d3" stroke-width="1"/>
  </g>
  <g id="Stecknadel-5" data-name="Stecknadel" transform="translate(300.078 16.5)">
    <path id="Pfad_209-5" data-name="Pfad 209" d="M198.756,40.44a8.444,8.444,0,1,0-10.444,8.195v102.2q0,11.019,1.012,22l.988,10.716.988-10.716q1.011-10.973,1.012-22V48.635A8.439,8.439,0,0,0,198.756,40.44Z" transform="translate(-181.868 -31.995)" fill="#4d4d4d" stroke="#91c3d3" stroke-width="1"/>
    <path id="Pfad_210-5" data-name="Pfad 210" d="M187.844,46.393a6.55,6.55,0,0,1-3.3-9.969c2.585-3.748,8.5-3.893,10.9.116a6.332,6.332,0,1,0-7.6,9.853Z" transform="translate(-181.868 -31.995)" fill="#fff" stroke="#91c3d3" stroke-width="1"/>
    <path id="Pfad_211-5" data-name="Pfad 211" d="M191.145,51.268l.225,17.311c.035,5.193.077,11.252.122,17.743.017,6.492.035,13.416.053,20.34-.018,6.925-.036,13.849-.053,20.34-.044,6.492-.086,12.551-.122,17.744l-.225,17.311s-.09-6.924-.225-17.311c-.036-5.193-.077-11.252-.122-17.744-.016-6.491-.034-13.415-.052-20.34.018-6.924.036-13.848.053-20.34.045-6.491.086-12.55.122-17.743C191.056,58.192,191.145,51.268,191.145,51.268Z" transform="translate(-181.868 -31.995)" fill="#fff" stroke="#91c3d3" stroke-width="1"/>
  </g>
  <g id="Gruppe_19" data-name="Gruppe 19" transform="translate(-35.261 -166.437)">
    <path id="Pfad_134" data-name="Pfad 134" d="M180.9,273.722h0c-.941-8.949-3.719-34.226-5.8-41.21-2.382-7.965-18.245-7.806-18.245-7.806s-15.862-.159-18.245,7.806c-2.08,6.984-4.859,32.261-5.8,41.21h0s-13.342,13.483,12.62,18.019a66.414,66.414,0,0,0,22.849,0C194.238,287.2,180.9,273.722,180.9,273.722Z" fill="#4d4d4d" stroke="#91c3d3" stroke-width="1"/>
    <path id="Pfad_135" data-name="Pfad 135" d="M140.518,232.422a60.212,60.212,0,0,0,16.469,2.677,61.164,61.164,0,0,0,16.47-2.677A37.17,37.17,0,0,1,140.518,232.422Z" fill="#fff" stroke="#91c3d3" stroke-width="1"/>
    <path id="Pfad_136" data-name="Pfad 136" d="M133.175,276.227c-1,3.442,2.924,5.69,5.559,6.664a40.96,40.96,0,0,0,11.363,2.054,92.863,92.863,0,0,0,12.041.112,51.659,51.659,0,0,0,11.51-1.733c2.981-.883,7.965-3.111,6.879-7.1,1.817,3.323-2.278,6.283-4.845,7.378a35.6,35.6,0,0,1-11.636,2.34,97.089,97.089,0,0,1-12.9.1,46.286,46.286,0,0,1-11.733-1.915,12.109,12.109,0,0,1-5.206-3.036C133.071,279.824,132.325,277.851,133.175,276.227Z" fill="#fff" stroke="#91c3d3" stroke-width="1"/>
    <g id="Gruppe_18" data-name="Gruppe 18">
      <path id="Pfad_137" data-name="Pfad 137" d="M178.527,264.911a1.052,1.052,0,0,0,1.11.983,1.212,1.212,0,0,0,.4-.071c-.068-.605-.139-1.229-.211-1.863a1.3,1.3,0,0,0-.188-.033A1.052,1.052,0,0,0,178.527,264.911Z" fill="#fff" stroke="#91c3d3" stroke-width="1"/>
      <path id="Pfad_138" data-name="Pfad 138" d="M174.722,265.8a.991.991,0,1,0,1.11.983A1.052,1.052,0,0,0,174.722,265.8Z" fill="#fff" stroke="#91c3d3" stroke-width="1"/>
      <path id="Pfad_139" data-name="Pfad 139" d="M169.7,267.2a.991.991,0,1,0,1.11.984A1.053,1.053,0,0,0,169.7,267.2Z" fill="#fff" stroke="#91c3d3" stroke-width="1"/>
      <path id="Pfad_140" data-name="Pfad 140" d="M164.59,268.13a.991.991,0,1,0,1.11.984A1.052,1.052,0,0,0,164.59,268.13Z" fill="#fff" stroke="#91c3d3" stroke-width="1"/>
      <path id="Pfad_141" data-name="Pfad 141" d="M159.436,268.6a.991.991,0,1,0,1.11.984A1.053,1.053,0,0,0,159.436,268.6Z" fill="#fff" stroke="#91c3d3" stroke-width="1"/>
      <ellipse id="Ellipse_1" data-name="Ellipse 1" cx="1.11" cy="0.984" rx="1.11" ry="0.984" transform="translate(153.157 268.595)" fill="#fff" stroke="#91c3d3" stroke-width="1"/>
      <path id="Pfad_142" data-name="Pfad 142" d="M149.113,268.128a.991.991,0,1,0,1.11.984A1.052,1.052,0,0,0,149.113,268.128Z" fill="#fff" stroke="#91c3d3" stroke-width="1"/>
      <ellipse id="Ellipse_2" data-name="Ellipse 2" cx="1.11" cy="0.984" rx="1.11" ry="0.984" transform="translate(142.897 267.194)" fill="#fff" stroke="#91c3d3" stroke-width="1"/>
      <ellipse id="Ellipse_3" data-name="Ellipse 3" cx="1.11" cy="0.984" rx="1.11" ry="0.984" transform="translate(137.87 265.793)" fill="#fff" stroke="#91c3d3" stroke-width="1"/>
      <path id="Pfad_143" data-name="Pfad 143" d="M135.175,264.911a1.052,1.052,0,0,0-1.11-.984,1.282,1.282,0,0,0-.187.033c-.073.634-.144,1.258-.212,1.863a1.221,1.221,0,0,0,.4.071A1.052,1.052,0,0,0,135.175,264.911Z" fill="#fff" stroke="#91c3d3" stroke-width="1"/>
      <path id="Pfad_144" data-name="Pfad 144" d="M178.186,260.209a1.042,1.042,0,0,0,1.092.983,1.161,1.161,0,0,0,.222-.04q-.112-.953-.228-1.926A1.04,1.04,0,0,0,178.186,260.209Z" fill="#fff" stroke="#91c3d3" stroke-width="1"/>
      <ellipse id="Ellipse_4" data-name="Ellipse 4" cx="1.092" cy="0.984" rx="1.092" ry="0.984" transform="translate(173.348 261.082)" fill="#fff" stroke="#91c3d3" stroke-width="1"/>
      <path id="Pfad_145" data-name="Pfad 145" d="M169.493,264.443a.989.989,0,1,0-1.092-.984A1.043,1.043,0,0,0,169.493,264.443Z" fill="#fff" stroke="#91c3d3" stroke-width="1"/>
      <ellipse id="Ellipse_5" data-name="Ellipse 5" cx="1.092" cy="0.984" rx="1.092" ry="0.984" transform="translate(163.375 263.405)" fill="#fff" stroke="#91c3d3" stroke-width="1"/>
      <path id="Pfad_146" data-name="Pfad 146" d="M159.4,265.836a.989.989,0,1,0-1.092-.983A1.042,1.042,0,0,0,159.4,265.836Z" fill="#fff" stroke="#91c3d3" stroke-width="1"/>
      <path id="Pfad_147" data-name="Pfad 147" d="M154.307,263.869a.989.989,0,1,0,1.092.984A1.042,1.042,0,0,0,154.307,263.869Z" fill="#fff" stroke="#91c3d3" stroke-width="1"/>
      <path id="Pfad_148" data-name="Pfad 148" d="M149.235,263.4a.989.989,0,1,0,1.092.983A1.042,1.042,0,0,0,149.235,263.4Z" fill="#fff" stroke="#91c3d3" stroke-width="1"/>
      <path id="Pfad_149" data-name="Pfad 149" d="M144.209,262.476a.989.989,0,1,0,1.092.983A1.042,1.042,0,0,0,144.209,262.476Z" fill="#fff" stroke="#91c3d3" stroke-width="1"/>
      <ellipse id="Ellipse_6" data-name="Ellipse 6" cx="1.092" cy="0.984" rx="1.092" ry="0.984" transform="translate(138.17 261.082)" fill="#fff" stroke="#91c3d3" stroke-width="1"/>
      <path id="Pfad_150" data-name="Pfad 150" d="M135.517,260.209a1.041,1.041,0,0,0-1.086-.983q-.117.973-.228,1.926a1.165,1.165,0,0,0,.221.04A1.042,1.042,0,0,0,135.517,260.209Z" fill="#fff" stroke="#91c3d3" stroke-width="1"/>
      <path id="Pfad_151" data-name="Pfad 151" d="M177.589,255.506a1.024,1.024,0,0,0,1.061.984,1.107,1.107,0,0,0,.284-.053q-.117-.95-.237-1.906c-.016,0-.03-.008-.047-.008A1.024,1.024,0,0,0,177.589,255.506Z" fill="#fff" stroke="#91c3d3" stroke-width="1"/>
      <path id="Pfad_152" data-name="Pfad 152" d="M175.01,257.361a1.065,1.065,0,1,0-1.062.984A1.024,1.024,0,0,0,175.01,257.361Z" fill="#fff" stroke="#91c3d3" stroke-width="1"/>
      <ellipse id="Ellipse_7" data-name="Ellipse 7" cx="1.062" cy="0.984" rx="1.062" ry="0.984" transform="translate(168.078 257.77)" fill="#fff" stroke="#91c3d3" stroke-width="1"/>
      <path id="Pfad_153" data-name="Pfad 153" d="M164.255,260.668a.986.986,0,1,0-1.062-.984A1.024,1.024,0,0,0,164.255,260.668Z" fill="#fff" stroke="#91c3d3" stroke-width="1"/>
      <path id="Pfad_154" data-name="Pfad 154" d="M159.324,261.135a.987.987,0,1,0-1.062-.984A1.026,1.026,0,0,0,159.324,261.135Z" fill="#fff" stroke="#91c3d3" stroke-width="1"/>
      <ellipse id="Ellipse_8" data-name="Ellipse 8" cx="1.062" cy="0.984" rx="1.062" ry="0.984" transform="translate(153.317 259.17)" fill="#fff" stroke="#91c3d3" stroke-width="1"/>
      <path id="Pfad_155" data-name="Pfad 155" d="M149.448,258.707a.987.987,0,1,0,1.062.984A1.025,1.025,0,0,0,149.448,258.707Z" fill="#fff" stroke="#91c3d3" stroke-width="1"/>
      <path id="Pfad_156" data-name="Pfad 156" d="M144.563,257.779a.986.986,0,1,0,1.062.984A1.025,1.025,0,0,0,144.563,257.779Z" fill="#fff" stroke="#91c3d3" stroke-width="1"/>
      <path id="Pfad_157" data-name="Pfad 157" d="M139.754,256.384a.987.987,0,1,0,1.062.984A1.026,1.026,0,0,0,139.754,256.384Z" fill="#fff" stroke="#91c3d3" stroke-width="1"/>
      <path id="Pfad_158" data-name="Pfad 158" d="M136.114,255.506a1.025,1.025,0,0,0-1.062-.983c-.016,0-.03.008-.046.008q-.12.955-.237,1.906a1.108,1.108,0,0,0,.283.053A1.025,1.025,0,0,0,136.114,255.506Z" fill="#fff" stroke="#91c3d3" stroke-width="1"/>
      <path id="Pfad_159" data-name="Pfad 159" d="M177.014,250.8a1.009,1.009,0,0,0,1.033.984,1.05,1.05,0,0,0,.292-.056q-.125-.957-.251-1.9c-.015,0-.027-.008-.041-.008A1.009,1.009,0,0,0,177.014,250.8Z" fill="#fff" stroke="#91c3d3" stroke-width="1"/>
      <path id="Pfad_160" data-name="Pfad 160" d="M174.472,252.659a1.034,1.034,0,1,0-1.032.984A1.009,1.009,0,0,0,174.472,252.659Z" fill="#fff" stroke="#91c3d3" stroke-width="1"/>
      <ellipse id="Ellipse_9" data-name="Ellipse 9" cx="1.032" cy="0.984" rx="1.032" ry="0.984" transform="translate(167.705 253.068)" fill="#fff" stroke="#91c3d3" stroke-width="1"/>
      <path id="Pfad_161" data-name="Pfad 161" d="M163.97,255.966a.985.985,0,1,0-1.033-.984A1.008,1.008,0,0,0,163.97,255.966Z" fill="#fff" stroke="#91c3d3" stroke-width="1"/>
      <path id="Pfad_162" data-name="Pfad 162" d="M159.166,256.433a.985.985,0,1,0-1.032-.984A1.009,1.009,0,0,0,159.166,256.433Z" fill="#fff" stroke="#91c3d3" stroke-width="1"/>
      <path id="Pfad_163" data-name="Pfad 163" d="M154.357,256.435a.985.985,0,1,0-1.032-.984A1.009,1.009,0,0,0,154.357,256.435Z" fill="#fff" stroke="#91c3d3" stroke-width="1"/>
      <path id="Pfad_164" data-name="Pfad 164" d="M149.572,254.005a.985.985,0,1,0,1.032.984A1.009,1.009,0,0,0,149.572,254.005Z" fill="#fff" stroke="#91c3d3" stroke-width="1"/>
      <path id="Pfad_165" data-name="Pfad 165" d="M144.84,253.077a.985.985,0,1,0,1.032.984A1.008,1.008,0,0,0,144.84,253.077Z" fill="#fff" stroke="#91c3d3" stroke-width="1"/>
      <path id="Pfad_166" data-name="Pfad 166" d="M140.191,251.683a.985.985,0,1,0,1.033.983A1.008,1.008,0,0,0,140.191,251.683Z" fill="#fff" stroke="#91c3d3" stroke-width="1"/>
      <path id="Pfad_167" data-name="Pfad 167" d="M136.688,250.8a1.008,1.008,0,0,0-1.032-.983c-.015,0-.027.007-.042.008q-.126.947-.251,1.9a1.056,1.056,0,0,0,.293.056A1.008,1.008,0,0,0,136.688,250.8Z" fill="#fff" stroke="#91c3d3" stroke-width="1"/>
      <path id="Pfad_168" data-name="Pfad 168" d="M176.582,246.1a1,1,0,0,0,1.01.984.948.948,0,0,0,.118-.023q-.137-.971-.272-1.914A.979.979,0,0,0,176.582,246.1Z" fill="#fff" stroke="#91c3d3" stroke-width="1"/>
      <path id="Pfad_169" data-name="Pfad 169" d="M174.128,247.958a1.01,1.01,0,1,0-1.01.983A1,1,0,0,0,174.128,247.958Z" fill="#fff" stroke="#91c3d3" stroke-width="1"/>
      <path id="Pfad_170" data-name="Pfad 170" d="M168.543,250.334a.984.984,0,1,0-1.01-.984A1,1,0,0,0,168.543,250.334Z" fill="#fff" stroke="#91c3d3" stroke-width="1"/>
      <path id="Pfad_171" data-name="Pfad 171" d="M163.9,251.264a.984.984,0,1,0-1.01-.984A1,1,0,0,0,163.9,251.264Z" fill="#fff" stroke="#91c3d3" stroke-width="1"/>
      <path id="Pfad_172" data-name="Pfad 172" d="M159.2,249.763a.984.984,0,1,0,1.01.983A1,1,0,0,0,159.2,249.763Z" fill="#fff" stroke="#91c3d3" stroke-width="1"/>
      <path id="Pfad_173" data-name="Pfad 173" d="M154.5,249.765a.984.984,0,1,0,1.01.983A1,1,0,0,0,154.5,249.765Z" fill="#fff" stroke="#91c3d3" stroke-width="1"/>
      <path id="Pfad_174" data-name="Pfad 174" d="M149.807,249.3a.984.984,0,1,0,1.01.984A1,1,0,0,0,149.807,249.3Z" fill="#fff" stroke="#91c3d3" stroke-width="1"/>
      <path id="Pfad_175" data-name="Pfad 175" d="M145.159,248.374a.984.984,0,1,0,1.011.984A1,1,0,0,0,145.159,248.374Z" fill="#fff" stroke="#91c3d3" stroke-width="1"/>
      <path id="Pfad_176" data-name="Pfad 176" d="M140.584,246.979a.984.984,0,1,0,1.01.984A1,1,0,0,0,140.584,246.979Z" fill="#fff" stroke="#91c3d3" stroke-width="1"/>
      <path id="Pfad_177" data-name="Pfad 177" d="M137.12,246.1a.979.979,0,0,0-.855-.953q-.137.943-.272,1.914a.9.9,0,0,0,.117.023A1,1,0,0,0,137.12,246.1Z" fill="#fff" stroke="#91c3d3" stroke-width="1"/>
      <path id="Pfad_178" data-name="Pfad 178" d="M176.066,241.4a.981.981,0,0,0,.957.979c-.1-.649-.2-1.283-.3-1.9A.974.974,0,0,0,176.066,241.4Z" fill="#fff" stroke="#91c3d3" stroke-width="1"/>
      <path id="Pfad_179" data-name="Pfad 179" d="M173.641,243.255a.984.984,0,1,0-.983.984A.983.983,0,0,0,173.641,243.255Z" fill="#fff" stroke="#91c3d3" stroke-width="1"/>
      <path id="Pfad_180" data-name="Pfad 180" d="M169.159,244.648a.983.983,0,1,0-.983.984A.983.983,0,0,0,169.159,244.648Z" fill="#fff" stroke="#91c3d3" stroke-width="1"/>
      <path id="Pfad_181" data-name="Pfad 181" d="M163.632,246.562a.984.984,0,1,0-.984-.984A.984.984,0,0,0,163.632,246.562Z" fill="#fff" stroke="#91c3d3" stroke-width="1"/>
      <path id="Pfad_182" data-name="Pfad 182" d="M159.054,247.028a.983.983,0,1,0-.984-.984A.984.984,0,0,0,159.054,247.028Z" fill="#fff" stroke="#91c3d3" stroke-width="1"/>
      <path id="Pfad_183" data-name="Pfad 183" d="M154.471,247.03a.983.983,0,1,0-.984-.983A.983.983,0,0,0,154.471,247.03Z" fill="#fff" stroke="#91c3d3" stroke-width="1"/>
      <path id="Pfad_184" data-name="Pfad 184" d="M149.911,244.6a.984.984,0,1,0,.984.984A.983.983,0,0,0,149.911,244.6Z" fill="#fff" stroke="#91c3d3" stroke-width="1"/>
      <path id="Pfad_185" data-name="Pfad 185" d="M145.4,243.672a.984.984,0,1,0,.984.984A.984.984,0,0,0,145.4,243.672Z" fill="#fff" stroke="#91c3d3" stroke-width="1"/>
      <path id="Pfad_186" data-name="Pfad 186" d="M140.974,242.278a.983.983,0,1,0,.984.983A.984.984,0,0,0,140.974,242.278Z" fill="#fff" stroke="#91c3d3" stroke-width="1"/>
      <path id="Pfad_187" data-name="Pfad 187" d="M137.637,241.4a.974.974,0,0,0-.657-.917c-.1.613-.2,1.247-.3,1.9A.981.981,0,0,0,137.637,241.4Z" fill="#fff" stroke="#91c3d3" stroke-width="1"/>
      <path id="Pfad_188" data-name="Pfad 188" d="M175.173,236.7a.962.962,0,0,0,.938.984.84.84,0,0,0,.123-.026c-.121-.667-.242-1.3-.362-1.891A.963.963,0,0,0,175.173,236.7Z" fill="#fff" stroke="#91c3d3" stroke-width="1"/>
      <path id="Pfad_189" data-name="Pfad 189" d="M172.9,238.563a.939.939,0,1,0-.938.984A.962.962,0,0,0,172.9,238.563Z" fill="#fff" stroke="#91c3d3" stroke-width="1"/>
      <path id="Pfad_190" data-name="Pfad 190" d="M168.646,239.959a.939.939,0,1,0-.938.983A.961.961,0,0,0,168.646,239.959Z" fill="#fff" stroke="#91c3d3" stroke-width="1"/>
      <path id="Pfad_191" data-name="Pfad 191" d="M163.392,241.871a.985.985,0,1,0-.938-.984A.962.962,0,0,0,163.392,241.871Z" fill="#fff" stroke="#91c3d3" stroke-width="1"/>
      <path id="Pfad_192" data-name="Pfad 192" d="M159.036,242.332a.985.985,0,1,0-.938-.984A.962.962,0,0,0,159.036,242.332Z" fill="#fff" stroke="#91c3d3" stroke-width="1"/>
      <path id="Pfad_193" data-name="Pfad 193" d="M154.666,240.361a.985.985,0,1,0,.939.983A.961.961,0,0,0,154.666,240.361Z" fill="#fff" stroke="#91c3d3" stroke-width="1"/>
      <path id="Pfad_194" data-name="Pfad 194" d="M150.31,239.893a.985.985,0,1,0,.938.983A.961.961,0,0,0,150.31,239.893Z" fill="#fff" stroke="#91c3d3" stroke-width="1"/>
      <path id="Pfad_195" data-name="Pfad 195" d="M145.994,238.961a.985.985,0,1,0,.938.984A.962.962,0,0,0,145.994,238.961Z" fill="#fff" stroke="#91c3d3" stroke-width="1"/>
      <path id="Pfad_196" data-name="Pfad 196" d="M141.746,237.568a.985.985,0,1,0,.938.984A.962.962,0,0,0,141.746,237.568Z" fill="#fff" stroke="#91c3d3" stroke-width="1"/>
      <path id="Pfad_197" data-name="Pfad 197" d="M138.529,236.7a.962.962,0,0,0-.7-.933c-.12.59-.241,1.224-.363,1.891a.84.84,0,0,0,.123.026A.962.962,0,0,0,138.529,236.7Z" fill="#fff" stroke="#91c3d3" stroke-width="1"/>
    </g>
  </g>
  <g id="Stecknadel-6" data-name="Stecknadel" transform="translate(265.767 34.5)">
    <path id="Pfad_27" data-name="Pfad 27" d="M227.134,351.72v-14.2c0-7.54-5.9-14.009-13.439-14.147a13.7,13.7,0,0,0-13.951,13.693v15.854a1.073,1.073,0,0,0,1.157,1.067c-1.023,15.658-3.033,59.273,5.056,73.948a7.882,7.882,0,0,0,14.963,0c8.306-15.07,5.963-60.658,4.976-75.151A1.088,1.088,0,0,0,227.134,351.72Zm-13.695,78.368c-2.667,0-4.837-2.446-4.837-5.453s2.169-5.452,4.837-5.452,4.836,2.445,4.836,5.452S216.105,430.087,213.439,430.087Zm6.972-9.85a7.794,7.794,0,0,0-13.943,0c-4.9-18-3.084-54.246-2.244-67.005,3.136-.979,7.027-2.967,8.554-6.962a2.287,2.287,0,0,0,.068-1.518,14.149,14.149,0,0,1-.67-3.6,1.05,1.05,0,0,0-.545-.872,5.538,5.538,0,0,1-2.684-4.951c0-3,2.011-5.438,4.492-5.438s4.491,2.434,4.491,5.438a5.482,5.482,0,0,1-2.964,5.112,1.046,1.046,0,0,0-.62,1.041c.181,2.4,1.4,7.547,8.21,10.288C223.332,362.959,225.518,401.494,220.411,420.238Z" transform="translate(-199.744 -323.375)" fill="#4d4d4d" stroke="#91c3d3" stroke-width="1"/>
    <g id="Gruppe_5" data-name="Gruppe 5" transform="translate(0.557 1.87)">
      <path id="Pfad_28" data-name="Pfad 28" d="M211.038,328.483a2.88,2.88,0,0,0-3.562-1.082,3.72,3.72,0,0,0-1.969,3.8,3.9,3.9,0,0,0,.817,1.971c.208.258.549.46.684.765a5.612,5.612,0,0,1,.232.982c.273,1.2-1.157,2.215-2.1,2.7.941-.336,2.478-1.274,2.444-2.422a3.03,3.03,0,0,0-.487-1.743,3.976,3.976,0,0,1-1.126-1.873,3.5,3.5,0,0,1,1.753-3.96,2.85,2.85,0,0,1,3.416,1.02l-.1-.157C210.968,328.385,211.1,328.586,211.038,328.483Z" transform="translate(-197.251 -327.152)" fill="#fff" stroke="#91c3d3" stroke-width="1"/>
      <path id="Pfad_29" data-name="Pfad 29" d="M206.567,381.595a3.1,3.1,0,0,1,.519.035,2.734,2.734,0,0,1,1.337.612,3.343,3.343,0,0,1,1.142,1.983,3.461,3.461,0,0,1-.766,2.862,3,3,0,0,1-1.466.938,2.9,2.9,0,0,1-.919.106,3.472,3.472,0,0,1-.942-.137,2.9,2.9,0,0,1-1.52-1.235,7.1,7.1,0,0,1-.888-1.819,30.053,30.053,0,0,1-1.038-4.062c-.281-1.4-.48-2.835-.656-4.272-.152-1.44-.279-2.883-.35-4.305-.05-.711-.076-1.417-.092-2.115s-.049-1.387-.053-2.064c.011-1.356-.028-2.667.025-3.91s.047-2.417.122-3.5c.06-1.083.114-2.075.163-2.955.071-.878.134-1.644.185-2.274l.162-1.981-.141,1.983c-.045.631-.1,1.4-.16,2.275-.039.88-.084,1.873-.132,2.955-.063,1.082-.054,2.257-.084,3.5s.013,2.551.017,3.9c.011.677.051,1.364.075,2.06s.057,1.4.114,2.109c.086,1.419.228,2.855.4,4.289s.379,2.861.66,4.252a29.81,29.81,0,0,0,1.035,4.026,6.935,6.935,0,0,0,.857,1.756,2.646,2.646,0,0,0,1.382,1.135,3.223,3.223,0,0,0,.87.126,2.639,2.639,0,0,0,.844-.1,2.748,2.748,0,0,0,1.341-.859,3.321,3.321,0,0,0,.76-2.658,3.189,3.189,0,0,0-1.014-1.931,2.873,2.873,0,0,0-1.27-.662A3.105,3.105,0,0,0,206.567,381.595Z" transform="translate(-200.87 -280.676)" fill="#fff" stroke="#91c3d3" stroke-width="1"/>
      <path id="Pfad_30" data-name="Pfad 30" d="M220.823,351.617s.249,2.05.467,5.14c.046.773.1,1.611.148,2.5.036.887.1,1.821.11,2.79s.05,1.968.049,2.985c.014,1.017,0,2.049-.02,3.083s-.077,2.065-.118,3.081-.144,2.013-.209,2.98c-.083.965-.211,1.894-.31,2.776-.124.879-.273,1.706-.394,2.472s-.314,1.452-.446,2.067a15.354,15.354,0,0,1-.426,1.573l-.413,1.358s.136-.5.373-1.369a15.311,15.311,0,0,0,.379-1.582c.113-.618.276-1.308.4-2.072s.243-1.592.352-2.47c.084-.882.193-1.809.275-2.772.06-.964.155-1.959.193-2.973s.1-2.044.1-3.075c.025-1.031.045-2.061.036-3.077.006-1.015-.012-2.014-.033-2.98-.039-1.934-.1-3.738-.182-5.283l-.115-2.109c-.041-.627-.076-1.174-.1-1.625C220.863,352.131,220.823,351.617,220.823,351.617Z" transform="translate(-195.266 -279.725)" fill="#fff" stroke="#91c3d3" stroke-width="1"/>
    </g>
  </g>
  <g id="Stecknadel_offen" data-name="Stecknadel offen" transform="translate(17.277 38.324)">
    <path id="Pfad_31" data-name="Pfad 31" d="M187.043,352.692V338.01c0-7.8-6.1-14.49-13.9-14.633a14.165,14.165,0,0,0-14.429,14.162v16.4a1.118,1.118,0,0,0,1.294,1.11c2.926-.471,9.97-2.19,12.187-7.992a2.769,2.769,0,0,0,.071-1.568,14.633,14.633,0,0,1-.693-3.722,1.083,1.083,0,0,0-.563-.9,5.728,5.728,0,0,1-2.776-5.121c0-3.107,2.08-5.624,4.646-5.624s4.645,2.518,4.645,5.624a5.665,5.665,0,0,1-3.074,5.291,1.066,1.066,0,0,0-.633,1.067c.185,2.477,1.438,7.809,8.492,10.647.8,11.568,3.063,51.426-2.219,70.812a8.276,8.276,0,0,0-7.211-4.458,8.638,8.638,0,0,0-8.325,8.092c-12.659-14.953-27-51.313-31.437-63.05q-1.489-3.938-3.266-7.757l-4.731-10.151,1.794,7.977a109.789,109.789,0,0,0,4.758,15.605c6.2,15.979,20.518,50.418,33.129,62.551.875.843,1.715,1.713,2.6,2.542a8,8,0,0,0,5.475,2.2,8.4,8.4,0,0,0,7.738-5.587c8.591-15.587,6.167-62.738,5.145-77.729A1.126,1.126,0,0,0,187.043,352.692Zm-14.165,81.055c-2.758,0-5-2.53-5-5.64s2.244-5.639,5-5.639,5,2.529,5,5.639S175.636,433.747,172.878,433.747Z" transform="translate(-125.119 -323.375)" fill="#4d4d4d" stroke="#91c3d3" stroke-width="1"/>
    <g id="Gruppe_7" data-name="Gruppe 7" transform="translate(2.865 2.186)">
      <path id="Pfad_32" data-name="Pfad 32" d="M167.458,328.892a3.328,3.328,0,0,0-3.988-1.191,4.088,4.088,0,0,0-2.046,4.622,4.631,4.631,0,0,0,1.314,2.186,3.588,3.588,0,0,1,.569,2.034c.04,1.339-1.756,2.436-2.853,2.828,1.107-.568,2.776-1.747,2.457-3.153a6.464,6.464,0,0,0-.27-1.146c-.158-.357-.554-.589-.8-.893a4.532,4.532,0,0,1-.973-2.491,4.273,4.273,0,0,1,2.574-4.344A3.37,3.37,0,0,1,167.458,328.892Z" transform="translate(-112.87 -327.158)" fill="#fff" stroke="#91c3d3" stroke-width="1"/>
      <path id="Pfad_33" data-name="Pfad 33" d="M174.081,389.073c.011.012.419-.114,1.3-.223a15.211,15.211,0,0,1,3.93.038,10.926,10.926,0,0,1,4.814,1.727c1.252.922,1.833,2.318.651,3.6a6.526,6.526,0,0,1-3.024,1.618,16.423,16.423,0,0,1-4.816.569,17.524,17.524,0,0,1-4.763-.984,14.472,14.472,0,0,1-2.031-.811c-.61-.3-1.222-.607-1.8-.927-2.353-1.271-4.593-2.652-6.746-4.093-1.079-.719-2.106-1.463-3.164-2.2l-3.023-2.265-2.9-2.3-2.739-2.314c-.925-.763-1.747-1.541-2.592-2.3-.826-.766-1.692-1.512-2.439-2.268-1.513-1.508-3.061-2.949-4.346-4.353-1.319-1.4-2.61-2.708-3.634-3.951l-2.889-3.372-2.049-2.631-1.748-2.3,1.995,2.255,2.245,2.594,3.045,3.339c1.083,1.23,2.4,2.533,3.705,3.93,1.285,1.4,2.831,2.837,4.344,4.342.745.755,1.618,1.5,2.431,2.263.834.762,1.645,1.541,2.557,2.3l2.7,2.316,2.859,2.3,3.013,2.257c1.057.734,2.083,1.474,3.159,2.19,2.148,1.432,4.381,2.8,6.717,4.062.577.317,1.182.618,1.782.913a13.9,13.9,0,0,0,1.943.776,16.417,16.417,0,0,0,4.435.928,15.153,15.153,0,0,0,4.405-.525,5.962,5.962,0,0,0,2.756-1.476,1.964,1.964,0,0,0,.581-1.79,2.9,2.9,0,0,0-1.089-1.57,9.73,9.73,0,0,0-4.438-1.723,15.942,15.942,0,0,0-3.818-.126C174.523,388.971,174.087,389.085,174.081,389.073Z" transform="translate(-130.077 -285.584)" fill="#fff" stroke="#91c3d3" stroke-width="1"/>
      <path id="Pfad_34" data-name="Pfad 34" d="M176.4,351.617s.291,2.393.546,6c.053.9.111,1.88.172,2.914.042,1.035.112,2.126.128,3.256s.058,2.3.057,3.485c.017,1.187,0,2.392-.023,3.6s-.09,2.41-.138,3.6-.168,2.35-.244,3.478c-.1,1.126-.247,2.211-.362,3.241-.144,1.026-.319,1.992-.46,2.885s-.366,1.7-.521,2.413a17.927,17.927,0,0,1-.5,1.836l-.483,1.585s.159-.581.436-1.6a17.872,17.872,0,0,0,.443-1.846c.132-.722.322-1.527.462-2.418s.284-1.858.411-2.884c.1-1.03.225-2.112.321-3.236.071-1.126.181-2.287.225-3.47s.114-2.385.119-3.589c.028-1.2.053-2.406.042-3.591.008-1.185-.014-2.351-.038-3.479-.046-2.257-.122-4.363-.212-6.167l-.134-2.462c-.047-.732-.088-1.371-.122-1.9C176.449,352.217,176.4,351.617,176.4,351.617Z" transform="translate(-118.832 -282.327)" fill="#fff" stroke="#91c3d3" stroke-width="1"/>
    </g>
  </g>
</svg>
